<?xml version="1.0" encoding="utf-8" standalone="no"?>
<!DOCTYPE svg PUBLIC "-//W3C//DTD SVG 1.1//EN"
  "http://www.w3.org/Graphics/SVG/1.1/DTD/svg11.dtd">
<svg xmlns:xlink="http://www.w3.org/1999/xlink" width="656.39952pt" height="394.077885pt" viewBox="0 0 656.39952 394.077885" xmlns="http://www.w3.org/2000/svg" version="1.1">
 <metadata>
  <rdf:RDF xmlns:dc="http://purl.org/dc/elements/1.1/" xmlns:cc="http://creativecommons.org/ns#" xmlns:rdf="http://www.w3.org/1999/02/22-rdf-syntax-ns#">
   <cc:Work>
    <dc:type rdf:resource="http://purl.org/dc/dcmitype/StillImage"/>
    <dc:date>2024-12-17T03:11:12.838463</dc:date>
    <dc:format>image/svg+xml</dc:format>
    <dc:creator>
     <cc:Agent>
      <dc:title>Matplotlib v3.9.2, https://matplotlib.org/</dc:title>
     </cc:Agent>
    </dc:creator>
   </cc:Work>
  </rdf:RDF>
 </metadata>
 <defs>
  <style type="text/css">*{stroke-linejoin: round; stroke-linecap: butt}</style>
 </defs>
 <g id="figure_1">
  <g id="patch_1">
   <path d="M 0 394.077885 
L 656.39952 394.077885 
L 656.39952 0 
L 0 0 
z
" style="fill: #ffffff"/>
  </g>
  <g id="axes_1">
   <g id="patch_2">
    <path d="M 43.78125 227.539312 
L 239.253687 227.539312 
L 239.253687 39.932355 
L 43.78125 39.932355 
z
" style="fill: #ffffff"/>
   </g>
   <g id="matplotlib.axis_1">
    <g id="xtick_1">
     <g id="line2d_1">
      <defs>
       <path id="m005c5e6e08" d="M 0 0 
L 0 3.5 
" style="stroke: #000000; stroke-width: 0.8"/>
      </defs>
      <g>
       <use xlink:href="#m005c5e6e08" x="52.666361" y="227.539312" style="stroke: #000000; stroke-width: 0.8"/>
      </g>
     </g>
    </g>
    <g id="xtick_2">
     <g id="line2d_2">
      <g>
       <use xlink:href="#m005c5e6e08" x="88.206804" y="227.539312" style="stroke: #000000; stroke-width: 0.8"/>
      </g>
     </g>
    </g>
    <g id="xtick_3">
     <g id="line2d_3">
      <g>
       <use xlink:href="#m005c5e6e08" x="123.747247" y="227.539312" style="stroke: #000000; stroke-width: 0.8"/>
      </g>
     </g>
    </g>
    <g id="xtick_4">
     <g id="line2d_4">
      <g>
       <use xlink:href="#m005c5e6e08" x="159.28769" y="227.539312" style="stroke: #000000; stroke-width: 0.8"/>
      </g>
     </g>
    </g>
    <g id="xtick_5">
     <g id="line2d_5">
      <g>
       <use xlink:href="#m005c5e6e08" x="194.828133" y="227.539312" style="stroke: #000000; stroke-width: 0.8"/>
      </g>
     </g>
    </g>
    <g id="xtick_6">
     <g id="line2d_6">
      <g>
       <use xlink:href="#m005c5e6e08" x="230.368576" y="227.539312" style="stroke: #000000; stroke-width: 0.8"/>
      </g>
     </g>
    </g>
   </g>
   <g id="matplotlib.axis_2">
    <g id="ytick_1">
     <g id="line2d_7">
      <defs>
       <path id="m4ec43c6da9" d="M 0 0 
L -3.5 0 
" style="stroke: #000000; stroke-width: 0.8"/>
      </defs>
      <g>
       <use xlink:href="#m4ec43c6da9" x="43.78125" y="219.011723" style="stroke: #000000; stroke-width: 0.8"/>
      </g>
     </g>
     <g id="text_1">
      <!-- 0.0 -->
      <g transform="translate(20.878125 222.810941) scale(0.1 -0.1)">
       <defs>
        <path id="DejaVuSans-30" d="M 2034 4250 
Q 1547 4250 1301 3770 
Q 1056 3291 1056 2328 
Q 1056 1369 1301 889 
Q 1547 409 2034 409 
Q 2525 409 2770 889 
Q 3016 1369 3016 2328 
Q 3016 3291 2770 3770 
Q 2525 4250 2034 4250 
z
M 2034 4750 
Q 2819 4750 3233 4129 
Q 3647 3509 3647 2328 
Q 3647 1150 3233 529 
Q 2819 -91 2034 -91 
Q 1250 -91 836 529 
Q 422 1150 422 2328 
Q 422 3509 836 4129 
Q 1250 4750 2034 4750 
z
" transform="scale(0.015625)"/>
        <path id="DejaVuSans-2e" d="M 684 794 
L 1344 794 
L 1344 0 
L 684 0 
L 684 794 
z
" transform="scale(0.015625)"/>
       </defs>
       <use xlink:href="#DejaVuSans-30"/>
       <use xlink:href="#DejaVuSans-2e" x="63.623047"/>
       <use xlink:href="#DejaVuSans-30" x="95.410156"/>
      </g>
     </g>
    </g>
    <g id="ytick_2">
     <g id="line2d_8">
      <g>
       <use xlink:href="#m4ec43c6da9" x="43.78125" y="184.901367" style="stroke: #000000; stroke-width: 0.8"/>
      </g>
     </g>
     <g id="text_2">
      <!-- 0.2 -->
      <g transform="translate(20.878125 188.700586) scale(0.1 -0.1)">
       <defs>
        <path id="DejaVuSans-32" d="M 1228 531 
L 3431 531 
L 3431 0 
L 469 0 
L 469 531 
Q 828 903 1448 1529 
Q 2069 2156 2228 2338 
Q 2531 2678 2651 2914 
Q 2772 3150 2772 3378 
Q 2772 3750 2511 3984 
Q 2250 4219 1831 4219 
Q 1534 4219 1204 4116 
Q 875 4013 500 3803 
L 500 4441 
Q 881 4594 1212 4672 
Q 1544 4750 1819 4750 
Q 2544 4750 2975 4387 
Q 3406 4025 3406 3419 
Q 3406 3131 3298 2873 
Q 3191 2616 2906 2266 
Q 2828 2175 2409 1742 
Q 1991 1309 1228 531 
z
" transform="scale(0.015625)"/>
       </defs>
       <use xlink:href="#DejaVuSans-30"/>
       <use xlink:href="#DejaVuSans-2e" x="63.623047"/>
       <use xlink:href="#DejaVuSans-32" x="95.410156"/>
      </g>
     </g>
    </g>
    <g id="ytick_3">
     <g id="line2d_9">
      <g>
       <use xlink:href="#m4ec43c6da9" x="43.78125" y="150.791011" style="stroke: #000000; stroke-width: 0.8"/>
      </g>
     </g>
     <g id="text_3">
      <!-- 0.4 -->
      <g transform="translate(20.878125 154.59023) scale(0.1 -0.1)">
       <defs>
        <path id="DejaVuSans-34" d="M 2419 4116 
L 825 1625 
L 2419 1625 
L 2419 4116 
z
M 2253 4666 
L 3047 4666 
L 3047 1625 
L 3713 1625 
L 3713 1100 
L 3047 1100 
L 3047 0 
L 2419 0 
L 2419 1100 
L 313 1100 
L 313 1709 
L 2253 4666 
z
" transform="scale(0.015625)"/>
       </defs>
       <use xlink:href="#DejaVuSans-30"/>
       <use xlink:href="#DejaVuSans-2e" x="63.623047"/>
       <use xlink:href="#DejaVuSans-34" x="95.410156"/>
      </g>
     </g>
    </g>
    <g id="ytick_4">
     <g id="line2d_10">
      <g>
       <use xlink:href="#m4ec43c6da9" x="43.78125" y="116.680655" style="stroke: #000000; stroke-width: 0.8"/>
      </g>
     </g>
     <g id="text_4">
      <!-- 0.6 -->
      <g transform="translate(20.878125 120.479874) scale(0.1 -0.1)">
       <defs>
        <path id="DejaVuSans-36" d="M 2113 2584 
Q 1688 2584 1439 2293 
Q 1191 2003 1191 1497 
Q 1191 994 1439 701 
Q 1688 409 2113 409 
Q 2538 409 2786 701 
Q 3034 994 3034 1497 
Q 3034 2003 2786 2293 
Q 2538 2584 2113 2584 
z
M 3366 4563 
L 3366 3988 
Q 3128 4100 2886 4159 
Q 2644 4219 2406 4219 
Q 1781 4219 1451 3797 
Q 1122 3375 1075 2522 
Q 1259 2794 1537 2939 
Q 1816 3084 2150 3084 
Q 2853 3084 3261 2657 
Q 3669 2231 3669 1497 
Q 3669 778 3244 343 
Q 2819 -91 2113 -91 
Q 1303 -91 875 529 
Q 447 1150 447 2328 
Q 447 3434 972 4092 
Q 1497 4750 2381 4750 
Q 2619 4750 2861 4703 
Q 3103 4656 3366 4563 
z
" transform="scale(0.015625)"/>
       </defs>
       <use xlink:href="#DejaVuSans-30"/>
       <use xlink:href="#DejaVuSans-2e" x="63.623047"/>
       <use xlink:href="#DejaVuSans-36" x="95.410156"/>
      </g>
     </g>
    </g>
    <g id="ytick_5">
     <g id="line2d_11">
      <g>
       <use xlink:href="#m4ec43c6da9" x="43.78125" y="82.5703" style="stroke: #000000; stroke-width: 0.8"/>
      </g>
     </g>
     <g id="text_5">
      <!-- 0.8 -->
      <g transform="translate(20.878125 86.369518) scale(0.1 -0.1)">
       <defs>
        <path id="DejaVuSans-38" d="M 2034 2216 
Q 1584 2216 1326 1975 
Q 1069 1734 1069 1313 
Q 1069 891 1326 650 
Q 1584 409 2034 409 
Q 2484 409 2743 651 
Q 3003 894 3003 1313 
Q 3003 1734 2745 1975 
Q 2488 2216 2034 2216 
z
M 1403 2484 
Q 997 2584 770 2862 
Q 544 3141 544 3541 
Q 544 4100 942 4425 
Q 1341 4750 2034 4750 
Q 2731 4750 3128 4425 
Q 3525 4100 3525 3541 
Q 3525 3141 3298 2862 
Q 3072 2584 2669 2484 
Q 3125 2378 3379 2068 
Q 3634 1759 3634 1313 
Q 3634 634 3220 271 
Q 2806 -91 2034 -91 
Q 1263 -91 848 271 
Q 434 634 434 1313 
Q 434 1759 690 2068 
Q 947 2378 1403 2484 
z
M 1172 3481 
Q 1172 3119 1398 2916 
Q 1625 2713 2034 2713 
Q 2441 2713 2670 2916 
Q 2900 3119 2900 3481 
Q 2900 3844 2670 4047 
Q 2441 4250 2034 4250 
Q 1625 4250 1398 4047 
Q 1172 3844 1172 3481 
z
" transform="scale(0.015625)"/>
       </defs>
       <use xlink:href="#DejaVuSans-30"/>
       <use xlink:href="#DejaVuSans-2e" x="63.623047"/>
       <use xlink:href="#DejaVuSans-38" x="95.410156"/>
      </g>
     </g>
    </g>
    <g id="ytick_6">
     <g id="line2d_12">
      <g>
       <use xlink:href="#m4ec43c6da9" x="43.78125" y="48.459944" style="stroke: #000000; stroke-width: 0.8"/>
      </g>
     </g>
     <g id="text_6">
      <!-- 1.0 -->
      <g transform="translate(20.878125 52.259163) scale(0.1 -0.1)">
       <defs>
        <path id="DejaVuSans-31" d="M 794 531 
L 1825 531 
L 1825 4091 
L 703 3866 
L 703 4441 
L 1819 4666 
L 2450 4666 
L 2450 531 
L 3481 531 
L 3481 0 
L 794 0 
L 794 531 
z
" transform="scale(0.015625)"/>
       </defs>
       <use xlink:href="#DejaVuSans-31"/>
       <use xlink:href="#DejaVuSans-2e" x="63.623047"/>
       <use xlink:href="#DejaVuSans-30" x="95.410156"/>
      </g>
     </g>
    </g>
    <g id="text_7">
     <!-- Fraction of positives -->
     <g transform="translate(14.798438 183.910052) rotate(-90) scale(0.1 -0.1)">
      <defs>
       <path id="DejaVuSans-46" d="M 628 4666 
L 3309 4666 
L 3309 4134 
L 1259 4134 
L 1259 2759 
L 3109 2759 
L 3109 2228 
L 1259 2228 
L 1259 0 
L 628 0 
L 628 4666 
z
" transform="scale(0.015625)"/>
       <path id="DejaVuSans-72" d="M 2631 2963 
Q 2534 3019 2420 3045 
Q 2306 3072 2169 3072 
Q 1681 3072 1420 2755 
Q 1159 2438 1159 1844 
L 1159 0 
L 581 0 
L 581 3500 
L 1159 3500 
L 1159 2956 
Q 1341 3275 1631 3429 
Q 1922 3584 2338 3584 
Q 2397 3584 2469 3576 
Q 2541 3569 2628 3553 
L 2631 2963 
z
" transform="scale(0.015625)"/>
       <path id="DejaVuSans-61" d="M 2194 1759 
Q 1497 1759 1228 1600 
Q 959 1441 959 1056 
Q 959 750 1161 570 
Q 1363 391 1709 391 
Q 2188 391 2477 730 
Q 2766 1069 2766 1631 
L 2766 1759 
L 2194 1759 
z
M 3341 1997 
L 3341 0 
L 2766 0 
L 2766 531 
Q 2569 213 2275 61 
Q 1981 -91 1556 -91 
Q 1019 -91 701 211 
Q 384 513 384 1019 
Q 384 1609 779 1909 
Q 1175 2209 1959 2209 
L 2766 2209 
L 2766 2266 
Q 2766 2663 2505 2880 
Q 2244 3097 1772 3097 
Q 1472 3097 1187 3025 
Q 903 2953 641 2809 
L 641 3341 
Q 956 3463 1253 3523 
Q 1550 3584 1831 3584 
Q 2591 3584 2966 3190 
Q 3341 2797 3341 1997 
z
" transform="scale(0.015625)"/>
       <path id="DejaVuSans-63" d="M 3122 3366 
L 3122 2828 
Q 2878 2963 2633 3030 
Q 2388 3097 2138 3097 
Q 1578 3097 1268 2742 
Q 959 2388 959 1747 
Q 959 1106 1268 751 
Q 1578 397 2138 397 
Q 2388 397 2633 464 
Q 2878 531 3122 666 
L 3122 134 
Q 2881 22 2623 -34 
Q 2366 -91 2075 -91 
Q 1284 -91 818 406 
Q 353 903 353 1747 
Q 353 2603 823 3093 
Q 1294 3584 2113 3584 
Q 2378 3584 2631 3529 
Q 2884 3475 3122 3366 
z
" transform="scale(0.015625)"/>
       <path id="DejaVuSans-74" d="M 1172 4494 
L 1172 3500 
L 2356 3500 
L 2356 3053 
L 1172 3053 
L 1172 1153 
Q 1172 725 1289 603 
Q 1406 481 1766 481 
L 2356 481 
L 2356 0 
L 1766 0 
Q 1100 0 847 248 
Q 594 497 594 1153 
L 594 3053 
L 172 3053 
L 172 3500 
L 594 3500 
L 594 4494 
L 1172 4494 
z
" transform="scale(0.015625)"/>
       <path id="DejaVuSans-69" d="M 603 3500 
L 1178 3500 
L 1178 0 
L 603 0 
L 603 3500 
z
M 603 4863 
L 1178 4863 
L 1178 4134 
L 603 4134 
L 603 4863 
z
" transform="scale(0.015625)"/>
       <path id="DejaVuSans-6f" d="M 1959 3097 
Q 1497 3097 1228 2736 
Q 959 2375 959 1747 
Q 959 1119 1226 758 
Q 1494 397 1959 397 
Q 2419 397 2687 759 
Q 2956 1122 2956 1747 
Q 2956 2369 2687 2733 
Q 2419 3097 1959 3097 
z
M 1959 3584 
Q 2709 3584 3137 3096 
Q 3566 2609 3566 1747 
Q 3566 888 3137 398 
Q 2709 -91 1959 -91 
Q 1206 -91 779 398 
Q 353 888 353 1747 
Q 353 2609 779 3096 
Q 1206 3584 1959 3584 
z
" transform="scale(0.015625)"/>
       <path id="DejaVuSans-6e" d="M 3513 2113 
L 3513 0 
L 2938 0 
L 2938 2094 
Q 2938 2591 2744 2837 
Q 2550 3084 2163 3084 
Q 1697 3084 1428 2787 
Q 1159 2491 1159 1978 
L 1159 0 
L 581 0 
L 581 3500 
L 1159 3500 
L 1159 2956 
Q 1366 3272 1645 3428 
Q 1925 3584 2291 3584 
Q 2894 3584 3203 3211 
Q 3513 2838 3513 2113 
z
" transform="scale(0.015625)"/>
       <path id="DejaVuSans-20" transform="scale(0.015625)"/>
       <path id="DejaVuSans-66" d="M 2375 4863 
L 2375 4384 
L 1825 4384 
Q 1516 4384 1395 4259 
Q 1275 4134 1275 3809 
L 1275 3500 
L 2222 3500 
L 2222 3053 
L 1275 3053 
L 1275 0 
L 697 0 
L 697 3053 
L 147 3053 
L 147 3500 
L 697 3500 
L 697 3744 
Q 697 4328 969 4595 
Q 1241 4863 1831 4863 
L 2375 4863 
z
" transform="scale(0.015625)"/>
       <path id="DejaVuSans-70" d="M 1159 525 
L 1159 -1331 
L 581 -1331 
L 581 3500 
L 1159 3500 
L 1159 2969 
Q 1341 3281 1617 3432 
Q 1894 3584 2278 3584 
Q 2916 3584 3314 3078 
Q 3713 2572 3713 1747 
Q 3713 922 3314 415 
Q 2916 -91 2278 -91 
Q 1894 -91 1617 61 
Q 1341 213 1159 525 
z
M 3116 1747 
Q 3116 2381 2855 2742 
Q 2594 3103 2138 3103 
Q 1681 3103 1420 2742 
Q 1159 2381 1159 1747 
Q 1159 1113 1420 752 
Q 1681 391 2138 391 
Q 2594 391 2855 752 
Q 3116 1113 3116 1747 
z
" transform="scale(0.015625)"/>
       <path id="DejaVuSans-73" d="M 2834 3397 
L 2834 2853 
Q 2591 2978 2328 3040 
Q 2066 3103 1784 3103 
Q 1356 3103 1142 2972 
Q 928 2841 928 2578 
Q 928 2378 1081 2264 
Q 1234 2150 1697 2047 
L 1894 2003 
Q 2506 1872 2764 1633 
Q 3022 1394 3022 966 
Q 3022 478 2636 193 
Q 2250 -91 1575 -91 
Q 1294 -91 989 -36 
Q 684 19 347 128 
L 347 722 
Q 666 556 975 473 
Q 1284 391 1588 391 
Q 1994 391 2212 530 
Q 2431 669 2431 922 
Q 2431 1156 2273 1281 
Q 2116 1406 1581 1522 
L 1381 1569 
Q 847 1681 609 1914 
Q 372 2147 372 2553 
Q 372 3047 722 3315 
Q 1072 3584 1716 3584 
Q 2034 3584 2315 3537 
Q 2597 3491 2834 3397 
z
" transform="scale(0.015625)"/>
       <path id="DejaVuSans-76" d="M 191 3500 
L 800 3500 
L 1894 563 
L 2988 3500 
L 3597 3500 
L 2284 0 
L 1503 0 
L 191 3500 
z
" transform="scale(0.015625)"/>
       <path id="DejaVuSans-65" d="M 3597 1894 
L 3597 1613 
L 953 1613 
Q 991 1019 1311 708 
Q 1631 397 2203 397 
Q 2534 397 2845 478 
Q 3156 559 3463 722 
L 3463 178 
Q 3153 47 2828 -22 
Q 2503 -91 2169 -91 
Q 1331 -91 842 396 
Q 353 884 353 1716 
Q 353 2575 817 3079 
Q 1281 3584 2069 3584 
Q 2775 3584 3186 3129 
Q 3597 2675 3597 1894 
z
M 3022 2063 
Q 3016 2534 2758 2815 
Q 2500 3097 2075 3097 
Q 1594 3097 1305 2825 
Q 1016 2553 972 2059 
L 3022 2063 
z
" transform="scale(0.015625)"/>
      </defs>
      <use xlink:href="#DejaVuSans-46"/>
      <use xlink:href="#DejaVuSans-72" x="50.269531"/>
      <use xlink:href="#DejaVuSans-61" x="91.382812"/>
      <use xlink:href="#DejaVuSans-63" x="152.662109"/>
      <use xlink:href="#DejaVuSans-74" x="207.642578"/>
      <use xlink:href="#DejaVuSans-69" x="246.851562"/>
      <use xlink:href="#DejaVuSans-6f" x="274.634766"/>
      <use xlink:href="#DejaVuSans-6e" x="335.816406"/>
      <use xlink:href="#DejaVuSans-20" x="399.195312"/>
      <use xlink:href="#DejaVuSans-6f" x="430.982422"/>
      <use xlink:href="#DejaVuSans-66" x="492.164062"/>
      <use xlink:href="#DejaVuSans-20" x="527.369141"/>
      <use xlink:href="#DejaVuSans-70" x="559.15625"/>
      <use xlink:href="#DejaVuSans-6f" x="622.632812"/>
      <use xlink:href="#DejaVuSans-73" x="683.814453"/>
      <use xlink:href="#DejaVuSans-69" x="735.914062"/>
      <use xlink:href="#DejaVuSans-74" x="763.697266"/>
      <use xlink:href="#DejaVuSans-69" x="802.90625"/>
      <use xlink:href="#DejaVuSans-76" x="830.689453"/>
      <use xlink:href="#DejaVuSans-65" x="889.869141"/>
      <use xlink:href="#DejaVuSans-73" x="951.392578"/>
     </g>
    </g>
   </g>
   <g id="line2d_13">
    <path d="M 52.666361 219.011723 
L 230.368576 48.459944 
" clip-path="url(#pa70da948b9)" style="fill: none; stroke-dasharray: 1.5,2.475; stroke-dashoffset: 0; stroke: #000000; stroke-width: 1.5"/>
   </g>
   <g id="line2d_14">
    <path d="M 54.655777 219.011723 
L 74.046937 219.011723 
L 92.004724 219.011723 
L 144.64668 48.459944 
L 169.234518 48.459944 
L 187.414845 48.459944 
L 203.635492 48.459944 
L 227.865745 48.459944 
" clip-path="url(#pa70da948b9)" style="fill: none; stroke: #1f77b4; stroke-width: 1.5; stroke-linecap: square"/>
    <defs>
     <path id="me92b8a6757" d="M -3 3 
L 3 3 
L 3 -3 
L -3 -3 
z
" style="stroke: #1f77b4; stroke-linejoin: miter"/>
    </defs>
    <g clip-path="url(#pa70da948b9)">
     <use xlink:href="#me92b8a6757" x="54.655777" y="219.011723" style="fill: #1f77b4; stroke: #1f77b4; stroke-linejoin: miter"/>
     <use xlink:href="#me92b8a6757" x="74.046937" y="219.011723" style="fill: #1f77b4; stroke: #1f77b4; stroke-linejoin: miter"/>
     <use xlink:href="#me92b8a6757" x="92.004724" y="219.011723" style="fill: #1f77b4; stroke: #1f77b4; stroke-linejoin: miter"/>
     <use xlink:href="#me92b8a6757" x="144.64668" y="48.459944" style="fill: #1f77b4; stroke: #1f77b4; stroke-linejoin: miter"/>
     <use xlink:href="#me92b8a6757" x="169.234518" y="48.459944" style="fill: #1f77b4; stroke: #1f77b4; stroke-linejoin: miter"/>
     <use xlink:href="#me92b8a6757" x="187.414845" y="48.459944" style="fill: #1f77b4; stroke: #1f77b4; stroke-linejoin: miter"/>
     <use xlink:href="#me92b8a6757" x="203.635492" y="48.459944" style="fill: #1f77b4; stroke: #1f77b4; stroke-linejoin: miter"/>
     <use xlink:href="#me92b8a6757" x="227.865745" y="48.459944" style="fill: #1f77b4; stroke: #1f77b4; stroke-linejoin: miter"/>
    </g>
   </g>
   <g id="line2d_15">
    <path d="M 53.107087 219.011723 
L 77.659274 219.011723 
L 154.20016 48.459944 
L 189.11507 48.459944 
L 206.031253 48.459944 
L 229.515672 48.459944 
" clip-path="url(#pa70da948b9)" style="fill: none; stroke: #ff7f0e; stroke-width: 1.5; stroke-linecap: square"/>
    <defs>
     <path id="m836e7d9bd1" d="M -3 3 
L 3 3 
L 3 -3 
L -3 -3 
z
" style="stroke: #ff7f0e; stroke-linejoin: miter"/>
    </defs>
    <g clip-path="url(#pa70da948b9)">
     <use xlink:href="#m836e7d9bd1" x="53.107087" y="219.011723" style="fill: #ff7f0e; stroke: #ff7f0e; stroke-linejoin: miter"/>
     <use xlink:href="#m836e7d9bd1" x="77.659274" y="219.011723" style="fill: #ff7f0e; stroke: #ff7f0e; stroke-linejoin: miter"/>
     <use xlink:href="#m836e7d9bd1" x="154.20016" y="48.459944" style="fill: #ff7f0e; stroke: #ff7f0e; stroke-linejoin: miter"/>
     <use xlink:href="#m836e7d9bd1" x="189.11507" y="48.459944" style="fill: #ff7f0e; stroke: #ff7f0e; stroke-linejoin: miter"/>
     <use xlink:href="#m836e7d9bd1" x="206.031253" y="48.459944" style="fill: #ff7f0e; stroke: #ff7f0e; stroke-linejoin: miter"/>
     <use xlink:href="#m836e7d9bd1" x="229.515672" y="48.459944" style="fill: #ff7f0e; stroke: #ff7f0e; stroke-linejoin: miter"/>
    </g>
   </g>
   <g id="line2d_16">
    <path d="M 52.666361 219.011723 
L 131.86468 48.459944 
L 203.421846 48.459944 
L 230.368576 48.459944 
" clip-path="url(#pa70da948b9)" style="fill: none; stroke: #2ca02c; stroke-width: 1.5; stroke-linecap: square"/>
    <defs>
     <path id="ma9a74a4227" d="M -3 3 
L 3 3 
L 3 -3 
L -3 -3 
z
" style="stroke: #2ca02c; stroke-linejoin: miter"/>
    </defs>
    <g clip-path="url(#pa70da948b9)">
     <use xlink:href="#ma9a74a4227" x="52.666361" y="219.011723" style="fill: #2ca02c; stroke: #2ca02c; stroke-linejoin: miter"/>
     <use xlink:href="#ma9a74a4227" x="131.86468" y="48.459944" style="fill: #2ca02c; stroke: #2ca02c; stroke-linejoin: miter"/>
     <use xlink:href="#ma9a74a4227" x="203.421846" y="48.459944" style="fill: #2ca02c; stroke: #2ca02c; stroke-linejoin: miter"/>
     <use xlink:href="#ma9a74a4227" x="230.368576" y="48.459944" style="fill: #2ca02c; stroke: #2ca02c; stroke-linejoin: miter"/>
    </g>
   </g>
   <g id="line2d_17">
    <path d="M 101.188776 219.011723 
L 109.64833 219.011723 
L 149.173302 48.459944 
L 171.608935 48.459944 
L 181.667249 48.459944 
" clip-path="url(#pa70da948b9)" style="fill: none; stroke: #d62728; stroke-width: 1.5; stroke-linecap: square"/>
    <defs>
     <path id="m994e47efb4" d="M -3 3 
L 3 3 
L 3 -3 
L -3 -3 
z
" style="stroke: #d62728; stroke-linejoin: miter"/>
    </defs>
    <g clip-path="url(#pa70da948b9)">
     <use xlink:href="#m994e47efb4" x="101.188776" y="219.011723" style="fill: #d62728; stroke: #d62728; stroke-linejoin: miter"/>
     <use xlink:href="#m994e47efb4" x="109.64833" y="219.011723" style="fill: #d62728; stroke: #d62728; stroke-linejoin: miter"/>
     <use xlink:href="#m994e47efb4" x="149.173302" y="48.459944" style="fill: #d62728; stroke: #d62728; stroke-linejoin: miter"/>
     <use xlink:href="#m994e47efb4" x="171.608935" y="48.459944" style="fill: #d62728; stroke: #d62728; stroke-linejoin: miter"/>
     <use xlink:href="#m994e47efb4" x="181.667249" y="48.459944" style="fill: #d62728; stroke: #d62728; stroke-linejoin: miter"/>
    </g>
   </g>
   <g id="patch_3">
    <path d="M 43.78125 227.539312 
L 43.78125 39.932355 
" style="fill: none; stroke: #000000; stroke-width: 0.8; stroke-linejoin: miter; stroke-linecap: square"/>
   </g>
   <g id="patch_4">
    <path d="M 239.253687 227.539312 
L 239.253687 39.932355 
" style="fill: none; stroke: #000000; stroke-width: 0.8; stroke-linejoin: miter; stroke-linecap: square"/>
   </g>
   <g id="patch_5">
    <path d="M 43.78125 227.539312 
L 239.253687 227.539312 
" style="fill: none; stroke: #000000; stroke-width: 0.8; stroke-linejoin: miter; stroke-linecap: square"/>
   </g>
   <g id="patch_6">
    <path d="M 43.78125 39.932355 
L 239.253687 39.932355 
" style="fill: none; stroke: #000000; stroke-width: 0.8; stroke-linejoin: miter; stroke-linecap: square"/>
   </g>
   <g id="text_8">
    <!-- GLR -->
    <g transform="translate(129.356218 33.932355) scale(0.12 -0.12)">
     <defs>
      <path id="DejaVuSans-47" d="M 3809 666 
L 3809 1919 
L 2778 1919 
L 2778 2438 
L 4434 2438 
L 4434 434 
Q 4069 175 3628 42 
Q 3188 -91 2688 -91 
Q 1594 -91 976 548 
Q 359 1188 359 2328 
Q 359 3472 976 4111 
Q 1594 4750 2688 4750 
Q 3144 4750 3555 4637 
Q 3966 4525 4313 4306 
L 4313 3634 
Q 3963 3931 3569 4081 
Q 3175 4231 2741 4231 
Q 1884 4231 1454 3753 
Q 1025 3275 1025 2328 
Q 1025 1384 1454 906 
Q 1884 428 2741 428 
Q 3075 428 3337 486 
Q 3600 544 3809 666 
z
" transform="scale(0.015625)"/>
      <path id="DejaVuSans-4c" d="M 628 4666 
L 1259 4666 
L 1259 531 
L 3531 531 
L 3531 0 
L 628 0 
L 628 4666 
z
" transform="scale(0.015625)"/>
      <path id="DejaVuSans-52" d="M 2841 2188 
Q 3044 2119 3236 1894 
Q 3428 1669 3622 1275 
L 4263 0 
L 3584 0 
L 2988 1197 
Q 2756 1666 2539 1819 
Q 2322 1972 1947 1972 
L 1259 1972 
L 1259 0 
L 628 0 
L 628 4666 
L 2053 4666 
Q 2853 4666 3247 4331 
Q 3641 3997 3641 3322 
Q 3641 2881 3436 2590 
Q 3231 2300 2841 2188 
z
M 1259 4147 
L 1259 2491 
L 2053 2491 
Q 2509 2491 2742 2702 
Q 2975 2913 2975 3322 
Q 2975 3731 2742 3939 
Q 2509 4147 2053 4147 
L 1259 4147 
z
" transform="scale(0.015625)"/>
     </defs>
     <use xlink:href="#DejaVuSans-47"/>
     <use xlink:href="#DejaVuSans-4c" x="77.490234"/>
     <use xlink:href="#DejaVuSans-52" x="133.203125"/>
    </g>
   </g>
  </g>
  <g id="axes_2">
   <g id="patch_7">
    <path d="M 248.754167 227.539312 
L 444.226603 227.539312 
L 444.226603 39.932355 
L 248.754167 39.932355 
z
" style="fill: #ffffff"/>
   </g>
   <g id="matplotlib.axis_3">
    <g id="xtick_7">
     <g id="line2d_18">
      <g>
       <use xlink:href="#m005c5e6e08" x="257.639277" y="227.539312" style="stroke: #000000; stroke-width: 0.8"/>
      </g>
     </g>
    </g>
    <g id="xtick_8">
     <g id="line2d_19">
      <g>
       <use xlink:href="#m005c5e6e08" x="293.17972" y="227.539312" style="stroke: #000000; stroke-width: 0.8"/>
      </g>
     </g>
    </g>
    <g id="xtick_9">
     <g id="line2d_20">
      <g>
       <use xlink:href="#m005c5e6e08" x="328.720163" y="227.539312" style="stroke: #000000; stroke-width: 0.8"/>
      </g>
     </g>
    </g>
    <g id="xtick_10">
     <g id="line2d_21">
      <g>
       <use xlink:href="#m005c5e6e08" x="364.260607" y="227.539312" style="stroke: #000000; stroke-width: 0.8"/>
      </g>
     </g>
    </g>
    <g id="xtick_11">
     <g id="line2d_22">
      <g>
       <use xlink:href="#m005c5e6e08" x="399.80105" y="227.539312" style="stroke: #000000; stroke-width: 0.8"/>
      </g>
     </g>
    </g>
    <g id="xtick_12">
     <g id="line2d_23">
      <g>
       <use xlink:href="#m005c5e6e08" x="435.341493" y="227.539312" style="stroke: #000000; stroke-width: 0.8"/>
      </g>
     </g>
    </g>
   </g>
   <g id="matplotlib.axis_4">
    <g id="ytick_7">
     <g id="line2d_24">
      <g>
       <use xlink:href="#m4ec43c6da9" x="248.754167" y="219.011723" style="stroke: #000000; stroke-width: 0.8"/>
      </g>
     </g>
    </g>
    <g id="ytick_8">
     <g id="line2d_25">
      <g>
       <use xlink:href="#m4ec43c6da9" x="248.754167" y="184.901367" style="stroke: #000000; stroke-width: 0.8"/>
      </g>
     </g>
    </g>
    <g id="ytick_9">
     <g id="line2d_26">
      <g>
       <use xlink:href="#m4ec43c6da9" x="248.754167" y="150.791011" style="stroke: #000000; stroke-width: 0.8"/>
      </g>
     </g>
    </g>
    <g id="ytick_10">
     <g id="line2d_27">
      <g>
       <use xlink:href="#m4ec43c6da9" x="248.754167" y="116.680655" style="stroke: #000000; stroke-width: 0.8"/>
      </g>
     </g>
    </g>
    <g id="ytick_11">
     <g id="line2d_28">
      <g>
       <use xlink:href="#m4ec43c6da9" x="248.754167" y="82.5703" style="stroke: #000000; stroke-width: 0.8"/>
      </g>
     </g>
    </g>
    <g id="ytick_12">
     <g id="line2d_29">
      <g>
       <use xlink:href="#m4ec43c6da9" x="248.754167" y="48.459944" style="stroke: #000000; stroke-width: 0.8"/>
      </g>
     </g>
    </g>
   </g>
   <g id="line2d_30">
    <path d="M 257.639277 219.011723 
L 435.341493 48.459944 
" clip-path="url(#p64ddaeb824)" style="fill: none; stroke-dasharray: 1.5,2.475; stroke-dashoffset: 0; stroke: #000000; stroke-width: 1.5"/>
   </g>
   <g id="line2d_31">
    <path d="M 263.078163 219.011723 
L 282.535887 219.011723 
L 296.532409 219.011723 
L 313.202554 219.011723 
L 349.213868 48.459944 
L 370.952556 48.459944 
L 393.793587 48.459944 
L 412.402535 48.459944 
L 426.990792 48.459944 
" clip-path="url(#p64ddaeb824)" style="fill: none; stroke: #1f77b4; stroke-width: 1.5; stroke-linecap: square"/>
    <g clip-path="url(#p64ddaeb824)">
     <use xlink:href="#me92b8a6757" x="263.078163" y="219.011723" style="fill: #1f77b4; stroke: #1f77b4; stroke-linejoin: miter"/>
     <use xlink:href="#me92b8a6757" x="282.535887" y="219.011723" style="fill: #1f77b4; stroke: #1f77b4; stroke-linejoin: miter"/>
     <use xlink:href="#me92b8a6757" x="296.532409" y="219.011723" style="fill: #1f77b4; stroke: #1f77b4; stroke-linejoin: miter"/>
     <use xlink:href="#me92b8a6757" x="313.202554" y="219.011723" style="fill: #1f77b4; stroke: #1f77b4; stroke-linejoin: miter"/>
     <use xlink:href="#me92b8a6757" x="349.213868" y="48.459944" style="fill: #1f77b4; stroke: #1f77b4; stroke-linejoin: miter"/>
     <use xlink:href="#me92b8a6757" x="370.952556" y="48.459944" style="fill: #1f77b4; stroke: #1f77b4; stroke-linejoin: miter"/>
     <use xlink:href="#me92b8a6757" x="393.793587" y="48.459944" style="fill: #1f77b4; stroke: #1f77b4; stroke-linejoin: miter"/>
     <use xlink:href="#me92b8a6757" x="412.402535" y="48.459944" style="fill: #1f77b4; stroke: #1f77b4; stroke-linejoin: miter"/>
     <use xlink:href="#me92b8a6757" x="426.990792" y="48.459944" style="fill: #1f77b4; stroke: #1f77b4; stroke-linejoin: miter"/>
    </g>
   </g>
   <g id="line2d_32">
    <path d="M 259.401668 219.011723 
L 280.817467 219.011723 
L 311.593264 219.011723 
L 363.386393 48.459944 
L 369.78704 48.459944 
L 393.043211 48.459944 
L 413.923486 48.459944 
L 432.295497 48.459944 
" clip-path="url(#p64ddaeb824)" style="fill: none; stroke: #ff7f0e; stroke-width: 1.5; stroke-linecap: square"/>
    <g clip-path="url(#p64ddaeb824)">
     <use xlink:href="#m836e7d9bd1" x="259.401668" y="219.011723" style="fill: #ff7f0e; stroke: #ff7f0e; stroke-linejoin: miter"/>
     <use xlink:href="#m836e7d9bd1" x="280.817467" y="219.011723" style="fill: #ff7f0e; stroke: #ff7f0e; stroke-linejoin: miter"/>
     <use xlink:href="#m836e7d9bd1" x="311.593264" y="219.011723" style="fill: #ff7f0e; stroke: #ff7f0e; stroke-linejoin: miter"/>
     <use xlink:href="#m836e7d9bd1" x="363.386393" y="48.459944" style="fill: #ff7f0e; stroke: #ff7f0e; stroke-linejoin: miter"/>
     <use xlink:href="#m836e7d9bd1" x="369.78704" y="48.459944" style="fill: #ff7f0e; stroke: #ff7f0e; stroke-linejoin: miter"/>
     <use xlink:href="#m836e7d9bd1" x="393.043211" y="48.459944" style="fill: #ff7f0e; stroke: #ff7f0e; stroke-linejoin: miter"/>
     <use xlink:href="#m836e7d9bd1" x="413.923486" y="48.459944" style="fill: #ff7f0e; stroke: #ff7f0e; stroke-linejoin: miter"/>
     <use xlink:href="#m836e7d9bd1" x="432.295497" y="48.459944" style="fill: #ff7f0e; stroke: #ff7f0e; stroke-linejoin: miter"/>
    </g>
   </g>
   <g id="line2d_33">
    <path d="M 257.684781 219.011723 
L 289.50601 219.011723 
L 301.650154 219.011723 
L 349.160007 48.459944 
L 388.555457 48.459944 
L 413.858279 48.459944 
L 435.248368 48.459944 
" clip-path="url(#p64ddaeb824)" style="fill: none; stroke: #2ca02c; stroke-width: 1.5; stroke-linecap: square"/>
    <g clip-path="url(#p64ddaeb824)">
     <use xlink:href="#ma9a74a4227" x="257.684781" y="219.011723" style="fill: #2ca02c; stroke: #2ca02c; stroke-linejoin: miter"/>
     <use xlink:href="#ma9a74a4227" x="289.50601" y="219.011723" style="fill: #2ca02c; stroke: #2ca02c; stroke-linejoin: miter"/>
     <use xlink:href="#ma9a74a4227" x="301.650154" y="219.011723" style="fill: #2ca02c; stroke: #2ca02c; stroke-linejoin: miter"/>
     <use xlink:href="#ma9a74a4227" x="349.160007" y="48.459944" style="fill: #2ca02c; stroke: #2ca02c; stroke-linejoin: miter"/>
     <use xlink:href="#ma9a74a4227" x="388.555457" y="48.459944" style="fill: #2ca02c; stroke: #2ca02c; stroke-linejoin: miter"/>
     <use xlink:href="#ma9a74a4227" x="413.858279" y="48.459944" style="fill: #2ca02c; stroke: #2ca02c; stroke-linejoin: miter"/>
     <use xlink:href="#ma9a74a4227" x="435.248368" y="48.459944" style="fill: #2ca02c; stroke: #2ca02c; stroke-linejoin: miter"/>
    </g>
   </g>
   <g id="line2d_34">
    <path d="M 307.377487 219.011723 
L 314.120045 219.011723 
L 330.038454 219.011723 
L 356.843544 48.459944 
L 377.992738 48.459944 
L 384.74021 48.459944 
" clip-path="url(#p64ddaeb824)" style="fill: none; stroke: #d62728; stroke-width: 1.5; stroke-linecap: square"/>
    <g clip-path="url(#p64ddaeb824)">
     <use xlink:href="#m994e47efb4" x="307.377487" y="219.011723" style="fill: #d62728; stroke: #d62728; stroke-linejoin: miter"/>
     <use xlink:href="#m994e47efb4" x="314.120045" y="219.011723" style="fill: #d62728; stroke: #d62728; stroke-linejoin: miter"/>
     <use xlink:href="#m994e47efb4" x="330.038454" y="219.011723" style="fill: #d62728; stroke: #d62728; stroke-linejoin: miter"/>
     <use xlink:href="#m994e47efb4" x="356.843544" y="48.459944" style="fill: #d62728; stroke: #d62728; stroke-linejoin: miter"/>
     <use xlink:href="#m994e47efb4" x="377.992738" y="48.459944" style="fill: #d62728; stroke: #d62728; stroke-linejoin: miter"/>
     <use xlink:href="#m994e47efb4" x="384.74021" y="48.459944" style="fill: #d62728; stroke: #d62728; stroke-linejoin: miter"/>
    </g>
   </g>
   <g id="patch_8">
    <path d="M 248.754167 227.539312 
L 248.754167 39.932355 
" style="fill: none; stroke: #000000; stroke-width: 0.8; stroke-linejoin: miter; stroke-linecap: square"/>
   </g>
   <g id="patch_9">
    <path d="M 444.226603 227.539312 
L 444.226603 39.932355 
" style="fill: none; stroke: #000000; stroke-width: 0.8; stroke-linejoin: miter; stroke-linecap: square"/>
   </g>
   <g id="patch_10">
    <path d="M 248.754167 227.539312 
L 444.226603 227.539312 
" style="fill: none; stroke: #000000; stroke-width: 0.8; stroke-linejoin: miter; stroke-linecap: square"/>
   </g>
   <g id="patch_11">
    <path d="M 248.754167 39.932355 
L 444.226603 39.932355 
" style="fill: none; stroke: #000000; stroke-width: 0.8; stroke-linejoin: miter; stroke-linecap: square"/>
   </g>
   <g id="text_9">
    <!-- CLR -->
    <g transform="translate(334.78851 33.932355) scale(0.12 -0.12)">
     <defs>
      <path id="DejaVuSans-43" d="M 4122 4306 
L 4122 3641 
Q 3803 3938 3442 4084 
Q 3081 4231 2675 4231 
Q 1875 4231 1450 3742 
Q 1025 3253 1025 2328 
Q 1025 1406 1450 917 
Q 1875 428 2675 428 
Q 3081 428 3442 575 
Q 3803 722 4122 1019 
L 4122 359 
Q 3791 134 3420 21 
Q 3050 -91 2638 -91 
Q 1578 -91 968 557 
Q 359 1206 359 2328 
Q 359 3453 968 4101 
Q 1578 4750 2638 4750 
Q 3056 4750 3426 4639 
Q 3797 4528 4122 4306 
z
" transform="scale(0.015625)"/>
     </defs>
     <use xlink:href="#DejaVuSans-43"/>
     <use xlink:href="#DejaVuSans-4c" x="69.824219"/>
     <use xlink:href="#DejaVuSans-52" x="125.537109"/>
    </g>
   </g>
  </g>
  <g id="axes_3">
   <g id="patch_12">
    <path d="M 453.727083 227.539312 
L 649.19952 227.539312 
L 649.19952 39.932355 
L 453.727083 39.932355 
z
" style="fill: #ffffff"/>
   </g>
   <g id="matplotlib.axis_5">
    <g id="xtick_13">
     <g id="line2d_35">
      <g>
       <use xlink:href="#m005c5e6e08" x="462.612194" y="227.539312" style="stroke: #000000; stroke-width: 0.8"/>
      </g>
     </g>
    </g>
    <g id="xtick_14">
     <g id="line2d_36">
      <g>
       <use xlink:href="#m005c5e6e08" x="498.152637" y="227.539312" style="stroke: #000000; stroke-width: 0.8"/>
      </g>
     </g>
    </g>
    <g id="xtick_15">
     <g id="line2d_37">
      <g>
       <use xlink:href="#m005c5e6e08" x="533.69308" y="227.539312" style="stroke: #000000; stroke-width: 0.8"/>
      </g>
     </g>
    </g>
    <g id="xtick_16">
     <g id="line2d_38">
      <g>
       <use xlink:href="#m005c5e6e08" x="569.233523" y="227.539312" style="stroke: #000000; stroke-width: 0.8"/>
      </g>
     </g>
    </g>
    <g id="xtick_17">
     <g id="line2d_39">
      <g>
       <use xlink:href="#m005c5e6e08" x="604.773966" y="227.539312" style="stroke: #000000; stroke-width: 0.8"/>
      </g>
     </g>
    </g>
    <g id="xtick_18">
     <g id="line2d_40">
      <g>
       <use xlink:href="#m005c5e6e08" x="640.314409" y="227.539312" style="stroke: #000000; stroke-width: 0.8"/>
      </g>
     </g>
    </g>
   </g>
   <g id="matplotlib.axis_6">
    <g id="ytick_13">
     <g id="line2d_41">
      <g>
       <use xlink:href="#m4ec43c6da9" x="453.727083" y="219.011723" style="stroke: #000000; stroke-width: 0.8"/>
      </g>
     </g>
    </g>
    <g id="ytick_14">
     <g id="line2d_42">
      <g>
       <use xlink:href="#m4ec43c6da9" x="453.727083" y="184.901367" style="stroke: #000000; stroke-width: 0.8"/>
      </g>
     </g>
    </g>
    <g id="ytick_15">
     <g id="line2d_43">
      <g>
       <use xlink:href="#m4ec43c6da9" x="453.727083" y="150.791011" style="stroke: #000000; stroke-width: 0.8"/>
      </g>
     </g>
    </g>
    <g id="ytick_16">
     <g id="line2d_44">
      <g>
       <use xlink:href="#m4ec43c6da9" x="453.727083" y="116.680655" style="stroke: #000000; stroke-width: 0.8"/>
      </g>
     </g>
    </g>
    <g id="ytick_17">
     <g id="line2d_45">
      <g>
       <use xlink:href="#m4ec43c6da9" x="453.727083" y="82.5703" style="stroke: #000000; stroke-width: 0.8"/>
      </g>
     </g>
    </g>
    <g id="ytick_18">
     <g id="line2d_46">
      <g>
       <use xlink:href="#m4ec43c6da9" x="453.727083" y="48.459944" style="stroke: #000000; stroke-width: 0.8"/>
      </g>
     </g>
    </g>
   </g>
   <g id="line2d_47">
    <path d="M 462.612194 219.011723 
L 640.314409 48.459944 
" clip-path="url(#pcb109cc4fc)" style="fill: none; stroke-dasharray: 1.5,2.475; stroke-dashoffset: 0; stroke: #000000; stroke-width: 1.5"/>
   </g>
   <g id="line2d_48">
    <path d="M 469.371525 219.011723 
L 486.100115 219.011723 
L 599.595739 48.459944 
L 617.570945 48.459944 
L 629.812815 48.459944 
" clip-path="url(#pcb109cc4fc)" style="fill: none; stroke: #1f77b4; stroke-width: 1.5; stroke-linecap: square"/>
    <g clip-path="url(#pcb109cc4fc)">
     <use xlink:href="#me92b8a6757" x="469.371525" y="219.011723" style="fill: #1f77b4; stroke: #1f77b4; stroke-linejoin: miter"/>
     <use xlink:href="#me92b8a6757" x="486.100115" y="219.011723" style="fill: #1f77b4; stroke: #1f77b4; stroke-linejoin: miter"/>
     <use xlink:href="#me92b8a6757" x="599.595739" y="48.459944" style="fill: #1f77b4; stroke: #1f77b4; stroke-linejoin: miter"/>
     <use xlink:href="#me92b8a6757" x="617.570945" y="48.459944" style="fill: #1f77b4; stroke: #1f77b4; stroke-linejoin: miter"/>
     <use xlink:href="#me92b8a6757" x="629.812815" y="48.459944" style="fill: #1f77b4; stroke: #1f77b4; stroke-linejoin: miter"/>
    </g>
   </g>
   <g id="line2d_49">
    <path d="M 464.136988 219.011723 
L 620.410041 48.459944 
L 637.369592 48.459944 
" clip-path="url(#pcb109cc4fc)" style="fill: none; stroke: #ff7f0e; stroke-width: 1.5; stroke-linecap: square"/>
    <g clip-path="url(#pcb109cc4fc)">
     <use xlink:href="#m836e7d9bd1" x="464.136988" y="219.011723" style="fill: #ff7f0e; stroke: #ff7f0e; stroke-linejoin: miter"/>
     <use xlink:href="#m836e7d9bd1" x="620.410041" y="48.459944" style="fill: #ff7f0e; stroke: #ff7f0e; stroke-linejoin: miter"/>
     <use xlink:href="#m836e7d9bd1" x="637.369592" y="48.459944" style="fill: #ff7f0e; stroke: #ff7f0e; stroke-linejoin: miter"/>
    </g>
   </g>
   <g id="line2d_50">
    <path d="M 462.670401 219.011723 
L 486.60135 219.011723 
L 498.186896 219.011723 
L 600.562016 48.459944 
L 618.369449 48.459944 
L 640.209205 48.459944 
" clip-path="url(#pcb109cc4fc)" style="fill: none; stroke: #2ca02c; stroke-width: 1.5; stroke-linecap: square"/>
    <g clip-path="url(#pcb109cc4fc)">
     <use xlink:href="#ma9a74a4227" x="462.670401" y="219.011723" style="fill: #2ca02c; stroke: #2ca02c; stroke-linejoin: miter"/>
     <use xlink:href="#ma9a74a4227" x="486.60135" y="219.011723" style="fill: #2ca02c; stroke: #2ca02c; stroke-linejoin: miter"/>
     <use xlink:href="#ma9a74a4227" x="498.186896" y="219.011723" style="fill: #2ca02c; stroke: #2ca02c; stroke-linejoin: miter"/>
     <use xlink:href="#ma9a74a4227" x="600.562016" y="48.459944" style="fill: #2ca02c; stroke: #2ca02c; stroke-linejoin: miter"/>
     <use xlink:href="#ma9a74a4227" x="618.369449" y="48.459944" style="fill: #2ca02c; stroke: #2ca02c; stroke-linejoin: miter"/>
     <use xlink:href="#ma9a74a4227" x="640.209205" y="48.459944" style="fill: #2ca02c; stroke: #2ca02c; stroke-linejoin: miter"/>
    </g>
   </g>
   <g id="line2d_51">
    <path d="M 512.98302 219.011723 
L 517.089562 219.011723 
L 584.138591 48.459944 
L 588.951634 48.459944 
" clip-path="url(#pcb109cc4fc)" style="fill: none; stroke: #d62728; stroke-width: 1.5; stroke-linecap: square"/>
    <g clip-path="url(#pcb109cc4fc)">
     <use xlink:href="#m994e47efb4" x="512.98302" y="219.011723" style="fill: #d62728; stroke: #d62728; stroke-linejoin: miter"/>
     <use xlink:href="#m994e47efb4" x="517.089562" y="219.011723" style="fill: #d62728; stroke: #d62728; stroke-linejoin: miter"/>
     <use xlink:href="#m994e47efb4" x="584.138591" y="48.459944" style="fill: #d62728; stroke: #d62728; stroke-linejoin: miter"/>
     <use xlink:href="#m994e47efb4" x="588.951634" y="48.459944" style="fill: #d62728; stroke: #d62728; stroke-linejoin: miter"/>
    </g>
   </g>
   <g id="patch_13">
    <path d="M 453.727083 227.539312 
L 453.727083 39.932355 
" style="fill: none; stroke: #000000; stroke-width: 0.8; stroke-linejoin: miter; stroke-linecap: square"/>
   </g>
   <g id="patch_14">
    <path d="M 649.19952 227.539312 
L 649.19952 39.932355 
" style="fill: none; stroke: #000000; stroke-width: 0.8; stroke-linejoin: miter; stroke-linecap: square"/>
   </g>
   <g id="patch_15">
    <path d="M 453.727083 227.539312 
L 649.19952 227.539312 
" style="fill: none; stroke: #000000; stroke-width: 0.8; stroke-linejoin: miter; stroke-linecap: square"/>
   </g>
   <g id="patch_16">
    <path d="M 453.727083 39.932355 
L 649.19952 39.932355 
" style="fill: none; stroke: #000000; stroke-width: 0.8; stroke-linejoin: miter; stroke-linecap: square"/>
   </g>
   <g id="text_10">
    <!-- EmbCLR -->
    <g transform="translate(526.316739 33.932355) scale(0.12 -0.12)">
     <defs>
      <path id="DejaVuSans-45" d="M 628 4666 
L 3578 4666 
L 3578 4134 
L 1259 4134 
L 1259 2753 
L 3481 2753 
L 3481 2222 
L 1259 2222 
L 1259 531 
L 3634 531 
L 3634 0 
L 628 0 
L 628 4666 
z
" transform="scale(0.015625)"/>
      <path id="DejaVuSans-6d" d="M 3328 2828 
Q 3544 3216 3844 3400 
Q 4144 3584 4550 3584 
Q 5097 3584 5394 3201 
Q 5691 2819 5691 2113 
L 5691 0 
L 5113 0 
L 5113 2094 
Q 5113 2597 4934 2840 
Q 4756 3084 4391 3084 
Q 3944 3084 3684 2787 
Q 3425 2491 3425 1978 
L 3425 0 
L 2847 0 
L 2847 2094 
Q 2847 2600 2669 2842 
Q 2491 3084 2119 3084 
Q 1678 3084 1418 2786 
Q 1159 2488 1159 1978 
L 1159 0 
L 581 0 
L 581 3500 
L 1159 3500 
L 1159 2956 
Q 1356 3278 1631 3431 
Q 1906 3584 2284 3584 
Q 2666 3584 2933 3390 
Q 3200 3197 3328 2828 
z
" transform="scale(0.015625)"/>
      <path id="DejaVuSans-62" d="M 3116 1747 
Q 3116 2381 2855 2742 
Q 2594 3103 2138 3103 
Q 1681 3103 1420 2742 
Q 1159 2381 1159 1747 
Q 1159 1113 1420 752 
Q 1681 391 2138 391 
Q 2594 391 2855 752 
Q 3116 1113 3116 1747 
z
M 1159 2969 
Q 1341 3281 1617 3432 
Q 1894 3584 2278 3584 
Q 2916 3584 3314 3078 
Q 3713 2572 3713 1747 
Q 3713 922 3314 415 
Q 2916 -91 2278 -91 
Q 1894 -91 1617 61 
Q 1341 213 1159 525 
L 1159 0 
L 581 0 
L 581 4863 
L 1159 4863 
L 1159 2969 
z
" transform="scale(0.015625)"/>
     </defs>
     <use xlink:href="#DejaVuSans-45"/>
     <use xlink:href="#DejaVuSans-6d" x="63.183594"/>
     <use xlink:href="#DejaVuSans-62" x="160.595703"/>
     <use xlink:href="#DejaVuSans-43" x="224.072266"/>
     <use xlink:href="#DejaVuSans-4c" x="293.896484"/>
     <use xlink:href="#DejaVuSans-52" x="349.609375"/>
    </g>
   </g>
  </g>
  <g id="axes_4">
   <g id="patch_17">
    <path d="M 43.78125 330.84327 
L 239.253687 330.84327 
L 239.253687 237.039792 
L 43.78125 237.039792 
z
" style="fill: #ffffff"/>
   </g>
   <g id="matplotlib.axis_7">
    <g id="xtick_19">
     <g id="line2d_52">
      <g>
       <use xlink:href="#m005c5e6e08" x="52.666361" y="330.84327" style="stroke: #000000; stroke-width: 0.8"/>
      </g>
     </g>
     <g id="text_11">
      <!-- 0.0 -->
      <g transform="translate(44.714798 345.441708) scale(0.1 -0.1)">
       <use xlink:href="#DejaVuSans-30"/>
       <use xlink:href="#DejaVuSans-2e" x="63.623047"/>
       <use xlink:href="#DejaVuSans-30" x="95.410156"/>
      </g>
     </g>
    </g>
    <g id="xtick_20">
     <g id="line2d_53">
      <g>
       <use xlink:href="#m005c5e6e08" x="88.206804" y="330.84327" style="stroke: #000000; stroke-width: 0.8"/>
      </g>
     </g>
     <g id="text_12">
      <!-- 0.2 -->
      <g transform="translate(80.255241 345.441708) scale(0.1 -0.1)">
       <use xlink:href="#DejaVuSans-30"/>
       <use xlink:href="#DejaVuSans-2e" x="63.623047"/>
       <use xlink:href="#DejaVuSans-32" x="95.410156"/>
      </g>
     </g>
    </g>
    <g id="xtick_21">
     <g id="line2d_54">
      <g>
       <use xlink:href="#m005c5e6e08" x="123.747247" y="330.84327" style="stroke: #000000; stroke-width: 0.8"/>
      </g>
     </g>
     <g id="text_13">
      <!-- 0.4 -->
      <g transform="translate(115.795684 345.441708) scale(0.1 -0.1)">
       <use xlink:href="#DejaVuSans-30"/>
       <use xlink:href="#DejaVuSans-2e" x="63.623047"/>
       <use xlink:href="#DejaVuSans-34" x="95.410156"/>
      </g>
     </g>
    </g>
    <g id="xtick_22">
     <g id="line2d_55">
      <g>
       <use xlink:href="#m005c5e6e08" x="159.28769" y="330.84327" style="stroke: #000000; stroke-width: 0.8"/>
      </g>
     </g>
     <g id="text_14">
      <!-- 0.6 -->
      <g transform="translate(151.336127 345.441708) scale(0.1 -0.1)">
       <use xlink:href="#DejaVuSans-30"/>
       <use xlink:href="#DejaVuSans-2e" x="63.623047"/>
       <use xlink:href="#DejaVuSans-36" x="95.410156"/>
      </g>
     </g>
    </g>
    <g id="xtick_23">
     <g id="line2d_56">
      <g>
       <use xlink:href="#m005c5e6e08" x="194.828133" y="330.84327" style="stroke: #000000; stroke-width: 0.8"/>
      </g>
     </g>
     <g id="text_15">
      <!-- 0.8 -->
      <g transform="translate(186.87657 345.441708) scale(0.1 -0.1)">
       <use xlink:href="#DejaVuSans-30"/>
       <use xlink:href="#DejaVuSans-2e" x="63.623047"/>
       <use xlink:href="#DejaVuSans-38" x="95.410156"/>
      </g>
     </g>
    </g>
    <g id="xtick_24">
     <g id="line2d_57">
      <g>
       <use xlink:href="#m005c5e6e08" x="230.368576" y="330.84327" style="stroke: #000000; stroke-width: 0.8"/>
      </g>
     </g>
     <g id="text_16">
      <!-- 1.0 -->
      <g transform="translate(222.417013 345.441708) scale(0.1 -0.1)">
       <use xlink:href="#DejaVuSans-31"/>
       <use xlink:href="#DejaVuSans-2e" x="63.623047"/>
       <use xlink:href="#DejaVuSans-30" x="95.410156"/>
      </g>
     </g>
    </g>
   </g>
   <g id="matplotlib.axis_8">
    <g id="text_17">
     <!-- Density -->
     <g transform="translate(37.701563 302.950125) rotate(-90) scale(0.1 -0.1)">
      <defs>
       <path id="DejaVuSans-44" d="M 1259 4147 
L 1259 519 
L 2022 519 
Q 2988 519 3436 956 
Q 3884 1394 3884 2338 
Q 3884 3275 3436 3711 
Q 2988 4147 2022 4147 
L 1259 4147 
z
M 628 4666 
L 1925 4666 
Q 3281 4666 3915 4102 
Q 4550 3538 4550 2338 
Q 4550 1131 3912 565 
Q 3275 0 1925 0 
L 628 0 
L 628 4666 
z
" transform="scale(0.015625)"/>
       <path id="DejaVuSans-79" d="M 2059 -325 
Q 1816 -950 1584 -1140 
Q 1353 -1331 966 -1331 
L 506 -1331 
L 506 -850 
L 844 -850 
Q 1081 -850 1212 -737 
Q 1344 -625 1503 -206 
L 1606 56 
L 191 3500 
L 800 3500 
L 1894 763 
L 2988 3500 
L 3597 3500 
L 2059 -325 
z
" transform="scale(0.015625)"/>
      </defs>
      <use xlink:href="#DejaVuSans-44"/>
      <use xlink:href="#DejaVuSans-65" x="77.001953"/>
      <use xlink:href="#DejaVuSans-6e" x="138.525391"/>
      <use xlink:href="#DejaVuSans-73" x="201.904297"/>
      <use xlink:href="#DejaVuSans-69" x="254.003906"/>
      <use xlink:href="#DejaVuSans-74" x="281.787109"/>
      <use xlink:href="#DejaVuSans-79" x="320.996094"/>
     </g>
    </g>
   </g>
   <g id="line2d_58">
    <path d="M -1 329.990296 
L 2.17766 329.533089 
L 5.158084 328.92482 
L 8.138507 328.096402 
L 11.118931 326.997364 
L 14.099354 325.577786 
L 17.079778 323.793697 
L 20.060201 321.613764 
L 23.040625 319.026675 
L 26.021049 316.048366 
L 29.001472 312.727935 
L 33.472107 307.303198 
L 39.432955 299.962676 
L 42.413378 296.632295 
L 45.393802 293.773034 
L 46.884014 292.573747 
L 48.374225 291.553246 
L 49.864437 290.727462 
L 51.354649 290.109423 
L 52.844861 289.70891 
L 54.335072 289.532195 
L 55.825284 289.581877 
L 57.315496 289.856817 
L 58.805708 290.352172 
L 60.29592 291.059542 
L 61.786131 291.967197 
L 63.276343 293.060406 
L 64.766555 294.321829 
L 67.746979 297.269705 
L 70.727402 300.638218 
L 82.649096 314.845667 
L 85.62952 317.888964 
L 88.609944 320.563792 
L 91.590367 322.846737 
L 94.570791 324.741938 
L 97.551214 326.274336 
L 100.531638 327.482601 
L 103.512061 328.412614 
L 106.492485 329.112076 
L 109.472909 329.626526 
L 113.943544 330.138927 
L 119.904391 330.503892 
L 127.35545 330.68695 
L 140.767356 330.730879 
L 157.159686 330.573339 
L 166.100956 330.28496 
L 172.061804 329.896936 
L 176.532439 329.431995 
L 181.003074 328.754361 
L 185.47371 327.799531 
L 188.454133 326.978539 
L 191.434557 325.993556 
L 194.41498 324.837891 
L 198.885616 322.79466 
L 203.356251 320.443534 
L 213.787734 314.691433 
L 216.768157 313.302608 
L 219.748581 312.172986 
L 222.729004 311.37229 
L 225.709428 310.953454 
L 228.689851 310.946921 
L 231.670275 311.35714 
L 234.650699 312.161798 
L 237.631122 313.31395 
L 240.611546 314.746736 
L 245.082181 317.245043 
L 254.023452 322.471635 
L 258.494087 324.745105 
L 261.474511 326.04091 
L 264.454934 327.144248 
L 267.435358 328.056631 
L 270.415781 328.79011 
L 274.886417 329.597857 
L 279.357052 330.12477 
L 285.317899 330.524127 
L 289.788535 330.679522 
L 289.788535 330.679522 
" clip-path="url(#p0ec741dca4)" style="fill: none; stroke: #1f77b4; stroke-width: 1.5; stroke-linecap: square"/>
   </g>
   <g id="line2d_59">
    <path d="M -1 329.637608 
L 0.636356 329.357913 
L 3.649855 328.693655 
L 6.663354 327.799644 
L 9.676853 326.627044 
L 12.690353 325.129017 
L 15.703852 323.26624 
L 18.717351 321.013491 
L 21.73085 318.366702 
L 24.74435 315.349588 
L 27.757849 312.018751 
L 32.278098 306.644807 
L 38.305097 299.509679 
L 41.318596 296.336804 
L 44.332095 293.662832 
L 45.838845 292.563524 
L 47.345594 291.645985 
L 48.852344 290.924617 
L 50.359094 290.410889 
L 51.865843 290.11303 
L 53.372593 290.035814 
L 54.879343 290.180429 
L 56.386092 290.544444 
L 57.892842 291.121884 
L 59.399591 291.903383 
L 60.906341 292.876446 
L 62.413091 294.025774 
L 65.42659 296.780479 
L 68.440089 300.005475 
L 72.960338 305.336935 
L 78.987337 312.482505 
L 82.000836 315.76048 
L 85.014335 318.71628 
L 88.027835 321.29913 
L 91.041334 323.49014 
L 94.054833 325.296902 
L 97.068332 326.746789 
L 100.081832 327.880018 
L 103.095331 328.743287 
L 106.10883 329.384563 
L 110.629079 330.028217 
L 115.149328 330.404123 
L 121.176327 330.655256 
L 130.216825 330.776508 
L 151.31132 330.761086 
L 164.872066 330.611282 
L 172.405814 330.31832 
L 176.926063 329.973037 
L 181.446312 329.423846 
L 185.966561 328.595103 
L 188.980061 327.849764 
L 191.99356 326.928054 
L 195.007059 325.818273 
L 198.020558 324.518793 
L 202.540807 322.243487 
L 207.061056 319.67765 
L 214.594804 315.303539 
L 217.608304 313.75143 
L 220.621803 312.440591 
L 223.635302 311.448372 
L 226.648802 310.836311 
L 229.662301 310.643843 
L 232.6758 310.884116 
L 235.689299 311.542533 
L 238.702799 312.57825 
L 241.716298 313.928402 
L 244.729797 315.514457 
L 250.756796 319.047503 
L 256.783794 322.521612 
L 261.304043 324.792939 
L 264.317543 326.082518 
L 267.331042 327.177936 
L 270.344541 328.082127 
L 273.35804 328.808114 
L 277.878289 329.607026 
L 282.398538 330.12829 
L 288.425537 330.524089 
L 291.439036 330.636882 
L 291.439036 330.636882 
" clip-path="url(#p0ec741dca4)" style="fill: none; stroke: #ff7f0e; stroke-width: 1.5; stroke-linecap: square"/>
   </g>
   <g id="line2d_60">
    <path d="M -1 329.50794 
L 1.673594 328.987313 
L 4.697246 328.195978 
L 7.720897 327.1483 
L 10.744548 325.796714 
L 13.7682 324.098695 
L 16.791851 322.022852 
L 19.815502 319.55574 
L 22.839154 316.708659 
L 25.862805 313.523426 
L 30.398282 308.287246 
L 36.445585 301.110611 
L 39.469236 297.800069 
L 42.492887 294.909263 
L 44.004713 293.674079 
L 45.516539 292.604461 
L 47.028364 291.716913 
L 48.54019 291.025377 
L 50.052016 290.540868 
L 51.563841 290.271178 
L 53.075667 290.220673 
L 54.587493 290.390171 
L 56.099318 290.776925 
L 57.611144 291.37469 
L 59.12297 292.173895 
L 60.634795 293.161901 
L 62.146621 294.323325 
L 65.170272 297.093648 
L 68.193924 300.323304 
L 72.729401 305.643908 
L 78.776703 312.750859 
L 81.800355 316.00333 
L 84.824006 318.931679 
L 87.847657 321.486416 
L 90.871309 323.649633 
L 93.89496 325.429628 
L 96.918611 326.85426 
L 99.942263 327.964066 
L 102.965914 328.805962 
L 105.989565 329.428067 
L 110.525042 330.047355 
L 115.060519 330.404471 
L 121.107822 330.639682 
L 131.690602 330.764381 
L 158.903463 330.76828 
L 169.486243 330.571144 
L 175.533546 330.246501 
L 180.069023 329.808297 
L 184.6045 329.123153 
L 187.628151 328.490066 
L 190.651802 327.690169 
L 193.675454 326.706305 
L 196.699105 325.529285 
L 199.722756 324.161291 
L 204.258233 321.792037 
L 210.305536 318.25992 
L 216.352839 314.794037 
L 219.37649 313.295642 
L 222.400141 312.067628 
L 225.423793 311.183569 
L 228.447444 310.698637 
L 231.471095 310.643903 
L 234.494747 311.023051 
L 237.518398 311.811973 
L 240.542049 312.961308 
L 243.565701 314.401572 
L 248.101178 316.924952 
L 257.172132 322.22766 
L 261.707609 324.543288 
L 264.73126 325.866697 
L 267.754911 326.996479 
L 270.778563 327.9336 
L 273.802214 328.689668 
L 278.337691 329.526596 
L 282.873168 330.076637 
L 287.408645 330.418169 
L 291.944122 330.618783 
L 291.944122 330.618783 
" clip-path="url(#p0ec741dca4)" style="fill: none; stroke: #2ca02c; stroke-width: 1.5; stroke-linecap: square"/>
   </g>
   <g id="line2d_61">
    <path d="M 72.880938 330.035501 
L 74.260527 329.580459 
L 75.640116 328.912718 
L 77.019705 327.957115 
L 78.399295 326.623813 
L 79.778884 324.810789 
L 81.158473 322.409108 
L 82.538062 319.311421 
L 83.917651 315.423714 
L 85.29724 310.679768 
L 86.67683 305.057092 
L 88.056419 298.592421 
L 90.125803 287.575716 
L 95.644159 256.637064 
L 97.023748 250.497319 
L 98.403338 245.750102 
L 99.093132 243.993757 
L 99.782927 242.688102 
L 100.472721 241.853904 
L 101.162516 241.504325 
L 101.852311 241.644578 
L 102.542105 242.271792 
L 103.2319 243.375107 
L 103.921694 244.935976 
L 104.611489 246.928688 
L 105.991078 252.075332 
L 107.370667 258.496427 
L 109.440051 269.691529 
L 113.578819 293.031412 
L 115.648202 303.151507 
L 117.027792 308.917348 
L 118.407381 313.83104 
L 119.78697 317.903136 
L 121.166559 321.189056 
L 122.546148 323.773718 
L 123.925737 325.75741 
L 125.305327 327.244114 
L 126.684916 328.332897 
L 128.064505 329.112381 
L 129.444094 329.657917 
L 131.513478 330.168178 
L 133.582862 330.440113 
L 137.031835 330.615375 
L 142.550191 330.605469 
L 148.068548 330.385843 
L 151.517521 330.016966 
L 153.586905 329.611503 
L 155.656289 328.977379 
L 157.035878 328.376974 
L 158.415467 327.591403 
L 159.795056 326.579123 
L 161.174645 325.296718 
L 162.554234 323.702286 
L 163.933824 321.760101 
L 165.313413 319.446378 
L 166.693002 316.755729 
L 168.762386 312.063648 
L 171.521564 304.931418 
L 174.970537 295.990386 
L 176.350126 292.934555 
L 177.729715 290.438739 
L 178.41951 289.449826 
L 179.109305 288.655686 
L 179.799099 288.069606 
L 180.488894 287.701789 
L 181.178688 287.55906 
L 181.868483 287.64467 
L 182.558278 287.958188 
L 183.248072 288.495493 
L 183.937867 289.248875 
L 184.627661 290.20722 
L 186.007251 292.679121 
L 187.38684 295.766921 
L 189.456223 301.169981 
L 194.284786 314.256675 
L 196.354169 318.939446 
L 197.733759 321.560966 
L 199.113348 323.76347 
L 200.492937 325.561625 
L 201.872526 326.989471 
L 203.252115 328.09303 
L 204.631704 328.923698 
L 206.011294 329.532933 
L 208.080677 330.134459 
L 210.150061 330.478587 
L 210.150061 330.478587 
" clip-path="url(#p0ec741dca4)" style="fill: none; stroke: #d62728; stroke-width: 1.5; stroke-linecap: square"/>
   </g>
   <g id="patch_18">
    <path d="M 43.78125 330.84327 
L 43.78125 237.039792 
" style="fill: none; stroke: #000000; stroke-width: 0.8; stroke-linejoin: miter; stroke-linecap: square"/>
   </g>
   <g id="patch_19">
    <path d="M 239.253687 330.84327 
L 239.253687 237.039792 
" style="fill: none; stroke: #000000; stroke-width: 0.8; stroke-linejoin: miter; stroke-linecap: square"/>
   </g>
   <g id="patch_20">
    <path d="M 43.78125 330.84327 
L 239.253687 330.84327 
" style="fill: none; stroke: #000000; stroke-width: 0.8; stroke-linejoin: miter; stroke-linecap: square"/>
   </g>
   <g id="patch_21">
    <path d="M 43.78125 237.039792 
L 239.253687 237.039792 
" style="fill: none; stroke: #000000; stroke-width: 0.8; stroke-linejoin: miter; stroke-linecap: square"/>
   </g>
  </g>
  <g id="axes_5">
   <g id="patch_22">
    <path d="M 248.754167 330.84327 
L 444.226603 330.84327 
L 444.226603 237.039792 
L 248.754167 237.039792 
z
" style="fill: #ffffff"/>
   </g>
   <g id="matplotlib.axis_9">
    <g id="xtick_25">
     <g id="line2d_62">
      <g>
       <use xlink:href="#m005c5e6e08" x="257.639277" y="330.84327" style="stroke: #000000; stroke-width: 0.8"/>
      </g>
     </g>
     <g id="text_18">
      <!-- 0.0 -->
      <g transform="translate(249.687715 345.441708) scale(0.1 -0.1)">
       <use xlink:href="#DejaVuSans-30"/>
       <use xlink:href="#DejaVuSans-2e" x="63.623047"/>
       <use xlink:href="#DejaVuSans-30" x="95.410156"/>
      </g>
     </g>
    </g>
    <g id="xtick_26">
     <g id="line2d_63">
      <g>
       <use xlink:href="#m005c5e6e08" x="293.17972" y="330.84327" style="stroke: #000000; stroke-width: 0.8"/>
      </g>
     </g>
     <g id="text_19">
      <!-- 0.2 -->
      <g transform="translate(285.228158 345.441708) scale(0.1 -0.1)">
       <use xlink:href="#DejaVuSans-30"/>
       <use xlink:href="#DejaVuSans-2e" x="63.623047"/>
       <use xlink:href="#DejaVuSans-32" x="95.410156"/>
      </g>
     </g>
    </g>
    <g id="xtick_27">
     <g id="line2d_64">
      <g>
       <use xlink:href="#m005c5e6e08" x="328.720163" y="330.84327" style="stroke: #000000; stroke-width: 0.8"/>
      </g>
     </g>
     <g id="text_20">
      <!-- 0.4 -->
      <g transform="translate(320.768601 345.441708) scale(0.1 -0.1)">
       <use xlink:href="#DejaVuSans-30"/>
       <use xlink:href="#DejaVuSans-2e" x="63.623047"/>
       <use xlink:href="#DejaVuSans-34" x="95.410156"/>
      </g>
     </g>
    </g>
    <g id="xtick_28">
     <g id="line2d_65">
      <g>
       <use xlink:href="#m005c5e6e08" x="364.260607" y="330.84327" style="stroke: #000000; stroke-width: 0.8"/>
      </g>
     </g>
     <g id="text_21">
      <!-- 0.6 -->
      <g transform="translate(356.309044 345.441708) scale(0.1 -0.1)">
       <use xlink:href="#DejaVuSans-30"/>
       <use xlink:href="#DejaVuSans-2e" x="63.623047"/>
       <use xlink:href="#DejaVuSans-36" x="95.410156"/>
      </g>
     </g>
    </g>
    <g id="xtick_29">
     <g id="line2d_66">
      <g>
       <use xlink:href="#m005c5e6e08" x="399.80105" y="330.84327" style="stroke: #000000; stroke-width: 0.8"/>
      </g>
     </g>
     <g id="text_22">
      <!-- 0.8 -->
      <g transform="translate(391.849487 345.441708) scale(0.1 -0.1)">
       <use xlink:href="#DejaVuSans-30"/>
       <use xlink:href="#DejaVuSans-2e" x="63.623047"/>
       <use xlink:href="#DejaVuSans-38" x="95.410156"/>
      </g>
     </g>
    </g>
    <g id="xtick_30">
     <g id="line2d_67">
      <g>
       <use xlink:href="#m005c5e6e08" x="435.341493" y="330.84327" style="stroke: #000000; stroke-width: 0.8"/>
      </g>
     </g>
     <g id="text_23">
      <!-- 1.0 -->
      <g transform="translate(427.38993 345.441708) scale(0.1 -0.1)">
       <use xlink:href="#DejaVuSans-31"/>
       <use xlink:href="#DejaVuSans-2e" x="63.623047"/>
       <use xlink:href="#DejaVuSans-30" x="95.410156"/>
      </g>
     </g>
    </g>
    <g id="text_24">
     <!-- Mean predicted probability -->
     <g transform="translate(279.295854 359.119832) scale(0.1 -0.1)">
      <defs>
       <path id="DejaVuSans-4d" d="M 628 4666 
L 1569 4666 
L 2759 1491 
L 3956 4666 
L 4897 4666 
L 4897 0 
L 4281 0 
L 4281 4097 
L 3078 897 
L 2444 897 
L 1241 4097 
L 1241 0 
L 628 0 
L 628 4666 
z
" transform="scale(0.015625)"/>
       <path id="DejaVuSans-64" d="M 2906 2969 
L 2906 4863 
L 3481 4863 
L 3481 0 
L 2906 0 
L 2906 525 
Q 2725 213 2448 61 
Q 2172 -91 1784 -91 
Q 1150 -91 751 415 
Q 353 922 353 1747 
Q 353 2572 751 3078 
Q 1150 3584 1784 3584 
Q 2172 3584 2448 3432 
Q 2725 3281 2906 2969 
z
M 947 1747 
Q 947 1113 1208 752 
Q 1469 391 1925 391 
Q 2381 391 2643 752 
Q 2906 1113 2906 1747 
Q 2906 2381 2643 2742 
Q 2381 3103 1925 3103 
Q 1469 3103 1208 2742 
Q 947 2381 947 1747 
z
" transform="scale(0.015625)"/>
       <path id="DejaVuSans-6c" d="M 603 4863 
L 1178 4863 
L 1178 0 
L 603 0 
L 603 4863 
z
" transform="scale(0.015625)"/>
      </defs>
      <use xlink:href="#DejaVuSans-4d"/>
      <use xlink:href="#DejaVuSans-65" x="86.279297"/>
      <use xlink:href="#DejaVuSans-61" x="147.802734"/>
      <use xlink:href="#DejaVuSans-6e" x="209.082031"/>
      <use xlink:href="#DejaVuSans-20" x="272.460938"/>
      <use xlink:href="#DejaVuSans-70" x="304.248047"/>
      <use xlink:href="#DejaVuSans-72" x="367.724609"/>
      <use xlink:href="#DejaVuSans-65" x="406.587891"/>
      <use xlink:href="#DejaVuSans-64" x="468.111328"/>
      <use xlink:href="#DejaVuSans-69" x="531.587891"/>
      <use xlink:href="#DejaVuSans-63" x="559.371094"/>
      <use xlink:href="#DejaVuSans-74" x="614.351562"/>
      <use xlink:href="#DejaVuSans-65" x="653.560547"/>
      <use xlink:href="#DejaVuSans-64" x="715.083984"/>
      <use xlink:href="#DejaVuSans-20" x="778.560547"/>
      <use xlink:href="#DejaVuSans-70" x="810.347656"/>
      <use xlink:href="#DejaVuSans-72" x="873.824219"/>
      <use xlink:href="#DejaVuSans-6f" x="912.6875"/>
      <use xlink:href="#DejaVuSans-62" x="973.869141"/>
      <use xlink:href="#DejaVuSans-61" x="1037.345703"/>
      <use xlink:href="#DejaVuSans-62" x="1098.625"/>
      <use xlink:href="#DejaVuSans-69" x="1162.101562"/>
      <use xlink:href="#DejaVuSans-6c" x="1189.884766"/>
      <use xlink:href="#DejaVuSans-69" x="1217.667969"/>
      <use xlink:href="#DejaVuSans-74" x="1245.451172"/>
      <use xlink:href="#DejaVuSans-79" x="1284.660156"/>
     </g>
    </g>
   </g>
   <g id="matplotlib.axis_10"/>
   <g id="line2d_68">
    <path d="M 202.682994 330.609651 
L 208.429811 330.246055 
L 212.739923 329.708634 
L 215.613332 329.153441 
L 218.48674 328.385282 
L 221.360148 327.35121 
L 224.233557 325.99749 
L 227.106965 324.275131 
L 229.980373 322.146949 
L 232.853782 319.595597 
L 235.72719 316.631612 
L 238.600598 313.30023 
L 242.910711 307.809124 
L 248.657528 300.301632 
L 251.530936 296.868601 
L 254.404344 293.905415 
L 255.841048 292.656435 
L 257.277753 291.589072 
L 258.714457 290.720083 
L 260.151161 290.063159 
L 261.587865 289.628556 
L 263.024569 289.422824 
L 264.461273 289.448641 
L 265.897978 289.704747 
L 267.334682 290.186006 
L 268.771386 290.883567 
L 270.20809 291.785129 
L 271.644794 292.875298 
L 273.081499 294.136022 
L 275.954907 297.086647 
L 278.828315 300.459076 
L 290.321949 314.641315 
L 293.195357 317.670248 
L 296.068765 320.332264 
L 298.942174 322.606528 
L 301.815582 324.498993 
L 304.68899 326.035406 
L 307.562399 327.254228 
L 310.435807 328.200287 
L 313.309215 328.919667 
L 316.182624 329.456029 
L 320.492736 330.00099 
L 324.802849 330.326821 
L 330.549665 330.549129 
L 339.16989 330.63646 
L 350.663524 330.517772 
L 360.720453 330.217201 
L 367.903974 329.811922 
L 373.650791 329.284325 
L 377.960903 328.70697 
L 382.271016 327.915734 
L 386.581128 326.853989 
L 390.891241 325.472694 
L 395.201353 323.747332 
L 399.511466 321.698343 
L 405.258282 318.618562 
L 411.005099 315.517793 
L 413.878507 314.134364 
L 416.751916 312.965301 
L 419.625324 312.082828 
L 422.498732 311.546523 
L 425.372141 311.396873 
L 428.245549 311.650549 
L 431.118957 312.298129 
L 433.992366 313.304668 
L 436.865774 314.61308 
L 439.739182 316.149837 
L 445.485999 319.57589 
L 451.232816 322.9445 
L 455.542928 325.14115 
L 458.416337 326.38356 
L 461.289745 327.43427 
L 464.163153 328.296657 
L 467.036562 328.984257 
L 471.346674 329.733026 
L 475.656787 330.213961 
L 481.403603 330.571193 
L 488.587124 330.759651 
L 488.587124 330.759651 
" clip-path="url(#p4abf4af710)" style="fill: none; stroke: #1f77b4; stroke-width: 1.5; stroke-linecap: square"/>
   </g>
   <g id="line2d_69">
    <path d="M 198.095289 330.485507 
L 202.569167 330.148585 
L 207.043044 329.560737 
L 210.02563 328.966461 
L 213.008215 328.157675 
L 215.9908 327.085478 
L 218.973385 325.701641 
L 221.95597 323.963905 
L 224.938555 321.842496 
L 227.92114 319.327309 
L 230.903725 316.434911 
L 233.88631 313.214229 
L 238.360188 307.962194 
L 244.325358 300.879999 
L 247.307943 297.681056 
L 250.290528 294.947492 
L 251.781821 293.807063 
L 253.273113 292.841786 
L 254.764406 292.066892 
L 256.255698 291.494752 
L 257.746991 291.134548 
L 259.238283 290.992026 
L 260.729576 291.069339 
L 262.220868 291.364996 
L 263.712161 291.873906 
L 265.203453 292.587522 
L 266.694746 293.494079 
L 268.186038 294.578918 
L 271.168623 297.212741 
L 274.151209 300.33004 
L 278.625086 305.527685 
L 284.590256 312.545504 
L 287.572841 315.778656 
L 290.555426 318.700192 
L 293.538012 321.257702 
L 296.520597 323.430787 
L 299.503182 325.225706 
L 302.485767 326.668673 
L 305.468352 327.798904 
L 308.450937 328.662228 
L 311.433522 329.305849 
L 315.9074 329.955833 
L 320.381277 330.339647 
L 326.346447 330.60066 
L 335.294202 330.72792 
L 351.69842 330.688966 
L 368.102638 330.453681 
L 375.559101 330.141635 
L 381.524271 329.644679 
L 385.998149 329.03252 
L 390.472026 328.13421 
L 393.454611 327.341858 
L 396.437196 326.376281 
L 399.419782 325.230153 
L 402.402367 323.907185 
L 406.876244 321.633884 
L 420.297877 314.3227 
L 423.280462 313.070707 
L 426.263047 312.124815 
L 429.245632 311.545153 
L 432.228217 311.370523 
L 435.210802 311.614185 
L 438.193387 312.262299 
L 441.175972 313.27529 
L 444.158558 314.591939 
L 447.141143 316.135605 
L 453.106313 319.565376 
L 459.071483 322.925138 
L 463.545361 325.112434 
L 466.527946 326.349709 
L 469.510531 327.397146 
L 472.493116 328.258457 
L 475.475701 328.947104 
L 479.949578 329.700567 
L 484.423456 330.188282 
L 490.388626 330.554811 
L 494.862504 330.696196 
L 494.862504 330.696196 
" clip-path="url(#p4abf4af710)" style="fill: none; stroke: #ff7f0e; stroke-width: 1.5; stroke-linecap: square"/>
   </g>
   <g id="line2d_70">
    <path d="M 196.258426 330.411597 
L 200.788033 330.024751 
L 205.31764 329.365444 
L 208.337378 328.71089 
L 211.357116 327.8327 
L 214.376854 326.684392 
L 217.396591 325.221836 
L 220.416329 323.408596 
L 223.436067 321.222255 
L 226.455805 318.661103 
L 229.475543 315.750344 
L 232.495281 312.546764 
L 238.534756 305.654993 
L 243.064363 300.608185 
L 246.084101 297.609867 
L 249.103839 295.100229 
L 250.613708 294.076284 
L 252.123577 293.22803 
L 253.633446 292.568785 
L 255.143315 292.109026 
L 256.653184 291.856114 
L 258.163053 291.814092 
L 259.672921 291.983578 
L 261.18279 292.361751 
L 262.692659 292.942425 
L 264.202528 293.716217 
L 265.712397 294.6708 
L 267.222266 295.791227 
L 270.242004 298.459101 
L 273.261742 301.563709 
L 277.791349 306.668723 
L 283.830824 313.472319 
L 286.850562 316.58058 
L 289.8703 319.376368 
L 292.890038 321.813564 
L 295.909776 323.876234 
L 298.929514 325.573343 
L 301.949252 326.932282 
L 304.968989 327.992235 
L 307.988727 328.798146 
L 311.008465 329.395803 
L 315.538072 329.994698 
L 320.067679 330.344041 
L 326.107154 330.577518 
L 336.676237 330.698059 
L 362.344009 330.673318 
L 372.913091 330.515302 
L 378.952567 330.257611 
L 383.482174 329.90499 
L 388.011781 329.344358 
L 392.541387 328.501047 
L 395.561125 327.745728 
L 398.580863 326.815764 
L 401.600601 325.701937 
L 404.620339 324.405806 
L 409.149946 322.157532 
L 415.189421 318.798863 
L 421.228897 315.496035 
L 424.248635 314.065861 
L 427.268373 312.892452 
L 430.288111 312.04654 
L 433.307849 311.581348 
L 436.327586 311.527086 
L 439.347324 311.887735 
L 442.367062 312.640609 
L 445.3868 313.738751 
L 448.406538 315.115817 
L 452.936145 317.529786 
L 461.995358 322.604888 
L 466.524965 324.821241 
L 469.544703 326.087719 
L 472.564441 327.168672 
L 475.584179 328.065038 
L 478.603916 328.787966 
L 483.133523 329.587777 
L 487.66313 330.113001 
L 493.702606 330.514708 
L 496.722344 330.629965 
L 496.722344 330.629965 
" clip-path="url(#p4abf4af710)" style="fill: none; stroke: #2ca02c; stroke-width: 1.5; stroke-linecap: square"/>
   </g>
   <g id="line2d_71">
    <path d="M 279.696253 330.301981 
L 281.699942 329.747415 
L 283.035735 329.140246 
L 284.371528 328.258031 
L 285.707321 327.009706 
L 287.043114 325.29014 
L 288.378907 322.985173 
L 289.7147 319.980168 
L 291.050493 316.172235 
L 292.386286 311.485622 
L 293.722078 305.888982 
L 295.057871 299.412446 
L 297.061561 288.302085 
L 302.404733 256.84158 
L 303.740525 250.587816 
L 305.076318 245.763727 
L 305.744215 243.98579 
L 306.412111 242.670492 
L 307.080008 241.838557 
L 307.747904 241.502642 
L 308.415801 241.66701 
L 309.083697 242.327439 
L 309.751594 243.471378 
L 310.41949 245.078328 
L 311.087387 247.120451 
L 312.42318 252.367096 
L 313.758973 258.875781 
L 315.762662 270.149866 
L 319.770041 293.403527 
L 321.77373 303.390221 
L 323.109523 309.0569 
L 324.445316 313.875377 
L 325.781109 317.864232 
L 327.116902 321.083985 
L 328.452695 323.621647 
L 329.788488 325.576972 
L 331.124281 327.05146 
L 332.460074 328.14051 
L 333.795867 328.928597 
L 335.13166 329.486992 
L 337.135349 330.016664 
L 339.139038 330.299587 
L 341.810624 330.446827 
L 345.150107 330.416864 
L 349.157485 330.168537 
L 352.496968 329.762555 
L 355.168554 329.231268 
L 357.172243 328.641723 
L 359.175932 327.809409 
L 360.511725 327.072796 
L 361.847518 326.151443 
L 363.183311 325.007975 
L 364.519104 323.60415 
L 365.854897 321.904271 
L 367.19069 319.879793 
L 368.526483 317.514924 
L 370.530172 313.342829 
L 372.533862 308.537985 
L 377.877033 295.197899 
L 379.212826 292.552236 
L 380.548619 290.509682 
L 381.216516 289.75817 
L 381.884412 289.205225 
L 382.552309 288.861347 
L 383.220205 288.733807 
L 383.888102 288.826426 
L 384.555998 289.139438 
L 385.223895 289.66945 
L 385.891791 290.409514 
L 387.227584 292.475281 
L 388.563377 295.218475 
L 389.89917 298.483198 
L 392.570756 305.859279 
L 395.242342 313.20541 
L 397.246031 318.04062 
L 398.581824 320.792284 
L 399.917617 323.130386 
L 401.25341 325.05839 
L 402.589203 326.602797 
L 403.924996 327.805522 
L 405.260789 328.716678 
L 406.596582 329.388513 
L 408.600271 330.05512 
L 410.60396 330.43798 
L 412.60765 330.645479 
L 412.60765 330.645479 
" clip-path="url(#p4abf4af710)" style="fill: none; stroke: #d62728; stroke-width: 1.5; stroke-linecap: square"/>
   </g>
   <g id="patch_23">
    <path d="M 248.754167 330.84327 
L 248.754167 237.039792 
" style="fill: none; stroke: #000000; stroke-width: 0.8; stroke-linejoin: miter; stroke-linecap: square"/>
   </g>
   <g id="patch_24">
    <path d="M 444.226603 330.84327 
L 444.226603 237.039792 
" style="fill: none; stroke: #000000; stroke-width: 0.8; stroke-linejoin: miter; stroke-linecap: square"/>
   </g>
   <g id="patch_25">
    <path d="M 248.754167 330.84327 
L 444.226603 330.84327 
" style="fill: none; stroke: #000000; stroke-width: 0.8; stroke-linejoin: miter; stroke-linecap: square"/>
   </g>
   <g id="patch_26">
    <path d="M 248.754167 237.039792 
L 444.226603 237.039792 
" style="fill: none; stroke: #000000; stroke-width: 0.8; stroke-linejoin: miter; stroke-linecap: square"/>
   </g>
  </g>
  <g id="axes_6">
   <g id="patch_27">
    <path d="M 453.727083 330.84327 
L 649.19952 330.84327 
L 649.19952 237.039792 
L 453.727083 237.039792 
z
" style="fill: #ffffff"/>
   </g>
   <g id="matplotlib.axis_11">
    <g id="xtick_31">
     <g id="line2d_72">
      <g>
       <use xlink:href="#m005c5e6e08" x="462.612194" y="330.84327" style="stroke: #000000; stroke-width: 0.8"/>
      </g>
     </g>
     <g id="text_25">
      <!-- 0.0 -->
      <g transform="translate(454.660632 345.441708) scale(0.1 -0.1)">
       <use xlink:href="#DejaVuSans-30"/>
       <use xlink:href="#DejaVuSans-2e" x="63.623047"/>
       <use xlink:href="#DejaVuSans-30" x="95.410156"/>
      </g>
     </g>
    </g>
    <g id="xtick_32">
     <g id="line2d_73">
      <g>
       <use xlink:href="#m005c5e6e08" x="498.152637" y="330.84327" style="stroke: #000000; stroke-width: 0.8"/>
      </g>
     </g>
     <g id="text_26">
      <!-- 0.2 -->
      <g transform="translate(490.201075 345.441708) scale(0.1 -0.1)">
       <use xlink:href="#DejaVuSans-30"/>
       <use xlink:href="#DejaVuSans-2e" x="63.623047"/>
       <use xlink:href="#DejaVuSans-32" x="95.410156"/>
      </g>
     </g>
    </g>
    <g id="xtick_33">
     <g id="line2d_74">
      <g>
       <use xlink:href="#m005c5e6e08" x="533.69308" y="330.84327" style="stroke: #000000; stroke-width: 0.8"/>
      </g>
     </g>
     <g id="text_27">
      <!-- 0.4 -->
      <g transform="translate(525.741518 345.441708) scale(0.1 -0.1)">
       <use xlink:href="#DejaVuSans-30"/>
       <use xlink:href="#DejaVuSans-2e" x="63.623047"/>
       <use xlink:href="#DejaVuSans-34" x="95.410156"/>
      </g>
     </g>
    </g>
    <g id="xtick_34">
     <g id="line2d_75">
      <g>
       <use xlink:href="#m005c5e6e08" x="569.233523" y="330.84327" style="stroke: #000000; stroke-width: 0.8"/>
      </g>
     </g>
     <g id="text_28">
      <!-- 0.6 -->
      <g transform="translate(561.281961 345.441708) scale(0.1 -0.1)">
       <use xlink:href="#DejaVuSans-30"/>
       <use xlink:href="#DejaVuSans-2e" x="63.623047"/>
       <use xlink:href="#DejaVuSans-36" x="95.410156"/>
      </g>
     </g>
    </g>
    <g id="xtick_35">
     <g id="line2d_76">
      <g>
       <use xlink:href="#m005c5e6e08" x="604.773966" y="330.84327" style="stroke: #000000; stroke-width: 0.8"/>
      </g>
     </g>
     <g id="text_29">
      <!-- 0.8 -->
      <g transform="translate(596.822404 345.441708) scale(0.1 -0.1)">
       <use xlink:href="#DejaVuSans-30"/>
       <use xlink:href="#DejaVuSans-2e" x="63.623047"/>
       <use xlink:href="#DejaVuSans-38" x="95.410156"/>
      </g>
     </g>
    </g>
    <g id="xtick_36">
     <g id="line2d_77">
      <g>
       <use xlink:href="#m005c5e6e08" x="640.314409" y="330.84327" style="stroke: #000000; stroke-width: 0.8"/>
      </g>
     </g>
     <g id="text_30">
      <!-- 1.0 -->
      <g transform="translate(632.362847 345.441708) scale(0.1 -0.1)">
       <use xlink:href="#DejaVuSans-31"/>
       <use xlink:href="#DejaVuSans-2e" x="63.623047"/>
       <use xlink:href="#DejaVuSans-30" x="95.410156"/>
      </g>
     </g>
    </g>
   </g>
   <g id="matplotlib.axis_12"/>
   <g id="line2d_78">
    <path d="M 409.203879 330.640749 
L 414.876515 330.315053 
L 419.130992 329.82491 
L 421.967311 329.312064 
L 424.803629 328.595094 
L 427.639947 327.619995 
L 430.476265 326.330531 
L 433.312583 324.673557 
L 436.148902 322.6061 
L 438.98522 320.10373 
L 441.821538 317.169295 
L 444.657856 313.840787 
L 447.494174 310.196804 
L 457.421288 297.025957 
L 460.257606 293.920475 
L 461.675765 292.601945 
L 463.093924 291.468922 
L 464.512084 290.540284 
L 465.930243 289.831756 
L 467.348402 289.355461 
L 468.766561 289.119575 
L 470.18472 289.128097 
L 471.602879 289.38073 
L 473.021038 289.872898 
L 474.439197 290.595883 
L 475.857356 291.537079 
L 477.275515 292.680362 
L 478.693675 294.006544 
L 481.529993 297.118811 
L 484.366311 300.68066 
L 494.293425 313.852456 
L 497.129743 317.155099 
L 499.966061 320.067391 
L 502.802379 322.553096 
L 505.638697 324.610109 
L 508.475016 326.262697 
L 511.311334 327.552981 
L 514.147652 328.532854 
L 516.98397 329.257166 
L 519.820288 329.77862 
L 524.074766 330.28179 
L 529.747402 330.621745 
L 536.838198 330.781244 
L 551.019789 330.82502 
L 565.20138 330.679827 
L 572.292175 330.391142 
L 577.964812 329.904163 
L 582.219289 329.29661 
L 586.473766 328.402742 
L 589.310084 327.614004 
L 592.146403 326.652511 
L 594.982721 325.510154 
L 597.819039 324.189012 
L 602.073516 321.909004 
L 607.746153 318.511043 
L 613.418789 315.156375 
L 616.255107 313.691134 
L 619.091426 312.476199 
L 621.927744 311.583876 
L 624.764062 311.070463 
L 627.60038 310.970398 
L 630.436698 311.292464 
L 633.273017 312.018609 
L 636.109335 313.105607 
L 638.945653 314.489332 
L 643.20013 316.946959 
L 653.127244 323.009613 
L 655.963562 324.518117 
L 657.39952 325.215327 
L 657.39952 325.215327 
" clip-path="url(#p49a7fe9e32)" style="fill: none; stroke: #1f77b4; stroke-width: 1.5; stroke-linecap: square"/>
   </g>
   <g id="line2d_79">
    <path d="M 402.706611 330.488209 
L 407.190789 330.156626 
L 411.674967 329.58016 
L 414.664418 328.998899 
L 417.65387 328.209344 
L 420.643322 327.164459 
L 423.632774 325.817985 
L 426.622226 324.129541 
L 429.611677 322.070887 
L 432.601129 319.63283 
L 435.590581 316.831925 
L 438.580033 313.715932 
L 443.064211 308.639918 
L 449.043114 301.80524 
L 452.032566 298.723175 
L 455.022018 296.094062 
L 456.516744 294.999493 
L 458.01147 294.075042 
L 459.506196 293.335445 
L 461.000922 292.792671 
L 462.495648 292.455602 
L 463.990373 292.329789 
L 465.485099 292.417303 
L 466.979825 292.716672 
L 468.474551 293.222929 
L 469.969277 293.927746 
L 471.464003 294.819661 
L 472.958729 295.884389 
L 475.948181 298.463373 
L 478.937633 301.509696 
L 483.42181 306.579906 
L 489.400714 313.409578 
L 492.390166 316.548329 
L 495.379618 319.378581 
L 498.369069 321.849688 
L 501.358521 323.942498 
L 504.347973 325.664084 
L 507.337425 327.041122 
L 510.326877 328.113003 
L 513.316329 328.925503 
L 516.30578 329.525598 
L 520.789958 330.123194 
L 525.274136 330.468778 
L 531.253039 330.698223 
L 541.716121 330.820636 
L 565.631735 330.806158 
L 576.094817 330.644839 
L 582.07372 330.381729 
L 586.557898 330.021051 
L 591.042076 329.447171 
L 595.526254 328.584349 
L 598.515706 327.812545 
L 601.505157 326.863821 
L 604.494609 325.72987 
L 607.484061 324.413614 
L 611.968239 322.139145 
L 619.441868 317.910797 
L 623.926046 315.482289 
L 626.915498 314.079514 
L 629.90495 312.944883 
L 632.894401 312.147752 
L 635.883853 311.738857 
L 638.873305 311.744968 
L 641.862757 312.165992 
L 644.852209 312.974955 
L 647.841661 314.120863 
L 650.831112 315.534032 
L 655.31529 317.975631 
L 657.39952 319.172575 
L 657.39952 319.172575 
" clip-path="url(#p49a7fe9e32)" style="fill: none; stroke: #ff7f0e; stroke-width: 1.5; stroke-linecap: square"/>
   </g>
   <g id="line2d_80">
    <path d="M 401.111061 330.428124 
L 405.644295 330.05662 
L 410.177528 329.423776 
L 413.199684 328.795688 
L 416.221839 327.953158 
L 419.243995 326.851603 
L 422.266151 325.448653 
L 425.288306 323.709253 
L 428.310462 321.611701 
L 431.332617 319.15405 
L 434.354773 316.360051 
L 437.376928 313.283643 
L 443.42124 306.659017 
L 447.954473 301.799395 
L 450.976629 298.90646 
L 453.998784 296.478812 
L 455.509862 295.485299 
L 457.02094 294.659679 
L 458.532017 294.014857 
L 460.043095 293.561038 
L 461.554173 293.305458 
L 463.065251 293.252186 
L 464.576329 293.402022 
L 466.087406 293.752474 
L 467.598484 294.297826 
L 469.109562 295.02929 
L 470.62064 295.935247 
L 472.131718 297.00155 
L 475.153873 299.548214 
L 478.176029 302.520564 
L 482.709262 307.422621 
L 488.753573 313.979816 
L 491.775729 316.985031 
L 494.797884 319.694095 
L 497.82004 322.061196 
L 500.842196 324.069532 
L 503.864351 325.726366 
L 506.886507 327.056922 
L 509.908662 328.098065 
L 512.930818 328.892524 
L 515.952974 329.484148 
L 520.486207 330.080809 
L 525.01944 330.432876 
L 531.063751 330.673952 
L 541.641296 330.811108 
L 564.307463 330.808699 
L 576.396085 330.655867 
L 583.951474 330.344193 
L 588.484708 329.983885 
L 593.017941 329.418882 
L 597.551174 328.577537 
L 600.57333 327.828906 
L 603.595485 326.91132 
L 606.617641 325.81665 
L 609.639797 324.547273 
L 614.17303 322.354035 
L 620.217341 319.093515 
L 626.261652 315.90418 
L 629.283808 314.529509 
L 632.305964 313.406344 
L 635.328119 312.602163 
L 638.350275 312.167381 
L 641.37243 312.130131 
L 644.394586 312.493268 
L 647.416741 313.234033 
L 650.438897 314.306441 
L 653.461053 315.646025 
L 657.39952 317.668177 
L 657.39952 317.668177 
" clip-path="url(#p49a7fe9e32)" style="fill: none; stroke: #2ca02c; stroke-width: 1.5; stroke-linecap: square"/>
   </g>
   <g id="line2d_81">
    <path d="M 485.260854 330.361361 
L 487.243079 329.855921 
L 488.564562 329.296844 
L 489.886045 328.477662 
L 491.207528 327.308875 
L 492.529012 325.68564 
L 493.850495 323.492172 
L 495.171978 320.609744 
L 496.493461 316.928567 
L 497.814944 312.363237 
L 499.136427 306.870599 
L 500.457911 300.468009 
L 502.440135 289.386746 
L 508.38681 254.064987 
L 509.708293 248.290468 
L 510.369035 245.990135 
L 511.029776 244.13414 
L 511.690518 242.753877 
L 512.351259 241.87292 
L 513.012001 241.506359 
L 513.672743 241.660363 
L 514.333484 242.332013 
L 514.994226 243.509389 
L 515.654967 245.171924 
L 516.315709 247.290997 
L 517.637192 252.749138 
L 518.958675 259.529371 
L 520.9409 271.264939 
L 524.90535 295.282247 
L 526.887575 305.430547 
L 528.209058 311.106899 
L 529.530541 315.863477 
L 530.852024 319.731349 
L 532.173507 322.786856 
L 533.494991 325.133873 
L 534.816474 326.888115 
L 536.137957 328.164758 
L 537.45944 329.069828 
L 538.780923 329.695174 
L 540.102406 330.116421 
L 542.084631 330.491877 
L 544.727598 330.718753 
L 549.352789 330.815998 
L 555.299463 330.724942 
L 558.603171 330.476182 
L 560.585396 330.156046 
L 562.567621 329.609648 
L 563.889104 329.06378 
L 565.210587 328.324964 
L 566.53207 327.347412 
L 567.853554 326.083745 
L 569.175037 324.488953 
L 570.49652 322.525617 
L 571.818003 320.170158 
L 573.139486 317.419571 
L 575.121711 312.613953 
L 577.764677 305.32308 
L 580.407644 297.955848 
L 581.729127 294.662977 
L 583.05061 291.871064 
L 584.372093 289.744685 
L 585.032835 288.974226 
L 585.693577 288.416698 
L 586.354318 288.081505 
L 587.01506 287.974573 
L 587.675801 288.098184 
L 588.336543 288.450893 
L 588.997285 289.027558 
L 589.658026 289.819458 
L 590.979509 291.997627 
L 592.300993 294.854613 
L 594.283217 300.044447 
L 599.56915 314.902898 
L 601.551375 319.485833 
L 602.872858 322.033916 
L 604.194341 324.16257 
L 605.515824 325.890056 
L 606.837308 327.253111 
L 608.158791 328.299504 
L 609.480274 329.08148 
L 610.801757 329.650595 
L 612.783982 330.206844 
L 614.766207 330.520745 
L 616.748432 330.688065 
L 616.748432 330.688065 
" clip-path="url(#p49a7fe9e32)" style="fill: none; stroke: #d62728; stroke-width: 1.5; stroke-linecap: square"/>
   </g>
   <g id="patch_28">
    <path d="M 453.727083 330.84327 
L 453.727083 237.039792 
" style="fill: none; stroke: #000000; stroke-width: 0.8; stroke-linejoin: miter; stroke-linecap: square"/>
   </g>
   <g id="patch_29">
    <path d="M 649.19952 330.84327 
L 649.19952 237.039792 
" style="fill: none; stroke: #000000; stroke-width: 0.8; stroke-linejoin: miter; stroke-linecap: square"/>
   </g>
   <g id="patch_30">
    <path d="M 453.727083 330.84327 
L 649.19952 330.84327 
" style="fill: none; stroke: #000000; stroke-width: 0.8; stroke-linejoin: miter; stroke-linecap: square"/>
   </g>
   <g id="patch_31">
    <path d="M 453.727083 237.039792 
L 649.19952 237.039792 
" style="fill: none; stroke: #000000; stroke-width: 0.8; stroke-linejoin: miter; stroke-linecap: square"/>
   </g>
  </g>
  <g id="text_31">
   <!-- Calibration curves for all concepts - CLEVR -->
   <g transform="translate(200.102573 16.318125) scale(0.12 -0.12)">
    <defs>
     <path id="DejaVuSans-75" d="M 544 1381 
L 544 3500 
L 1119 3500 
L 1119 1403 
Q 1119 906 1312 657 
Q 1506 409 1894 409 
Q 2359 409 2629 706 
Q 2900 1003 2900 1516 
L 2900 3500 
L 3475 3500 
L 3475 0 
L 2900 0 
L 2900 538 
Q 2691 219 2414 64 
Q 2138 -91 1772 -91 
Q 1169 -91 856 284 
Q 544 659 544 1381 
z
M 1991 3584 
L 1991 3584 
z
" transform="scale(0.015625)"/>
     <path id="DejaVuSans-2d" d="M 313 2009 
L 1997 2009 
L 1997 1497 
L 313 1497 
L 313 2009 
z
" transform="scale(0.015625)"/>
     <path id="DejaVuSans-56" d="M 1831 0 
L 50 4666 
L 709 4666 
L 2188 738 
L 3669 4666 
L 4325 4666 
L 2547 0 
L 1831 0 
z
" transform="scale(0.015625)"/>
    </defs>
    <use xlink:href="#DejaVuSans-43"/>
    <use xlink:href="#DejaVuSans-61" x="69.824219"/>
    <use xlink:href="#DejaVuSans-6c" x="131.103516"/>
    <use xlink:href="#DejaVuSans-69" x="158.886719"/>
    <use xlink:href="#DejaVuSans-62" x="186.669922"/>
    <use xlink:href="#DejaVuSans-72" x="250.146484"/>
    <use xlink:href="#DejaVuSans-61" x="291.259766"/>
    <use xlink:href="#DejaVuSans-74" x="352.539062"/>
    <use xlink:href="#DejaVuSans-69" x="391.748047"/>
    <use xlink:href="#DejaVuSans-6f" x="419.53125"/>
    <use xlink:href="#DejaVuSans-6e" x="480.712891"/>
    <use xlink:href="#DejaVuSans-20" x="544.091797"/>
    <use xlink:href="#DejaVuSans-63" x="575.878906"/>
    <use xlink:href="#DejaVuSans-75" x="630.859375"/>
    <use xlink:href="#DejaVuSans-72" x="694.238281"/>
    <use xlink:href="#DejaVuSans-76" x="735.351562"/>
    <use xlink:href="#DejaVuSans-65" x="794.53125"/>
    <use xlink:href="#DejaVuSans-73" x="856.054688"/>
    <use xlink:href="#DejaVuSans-20" x="908.154297"/>
    <use xlink:href="#DejaVuSans-66" x="939.941406"/>
    <use xlink:href="#DejaVuSans-6f" x="975.146484"/>
    <use xlink:href="#DejaVuSans-72" x="1036.328125"/>
    <use xlink:href="#DejaVuSans-20" x="1077.441406"/>
    <use xlink:href="#DejaVuSans-61" x="1109.228516"/>
    <use xlink:href="#DejaVuSans-6c" x="1170.507812"/>
    <use xlink:href="#DejaVuSans-6c" x="1198.291016"/>
    <use xlink:href="#DejaVuSans-20" x="1226.074219"/>
    <use xlink:href="#DejaVuSans-63" x="1257.861328"/>
    <use xlink:href="#DejaVuSans-6f" x="1312.841797"/>
    <use xlink:href="#DejaVuSans-6e" x="1374.023438"/>
    <use xlink:href="#DejaVuSans-63" x="1437.402344"/>
    <use xlink:href="#DejaVuSans-65" x="1492.382812"/>
    <use xlink:href="#DejaVuSans-70" x="1553.90625"/>
    <use xlink:href="#DejaVuSans-74" x="1617.382812"/>
    <use xlink:href="#DejaVuSans-73" x="1656.591797"/>
    <use xlink:href="#DejaVuSans-20" x="1708.691406"/>
    <use xlink:href="#DejaVuSans-2d" x="1740.478516"/>
    <use xlink:href="#DejaVuSans-20" x="1776.5625"/>
    <use xlink:href="#DejaVuSans-43" x="1808.349609"/>
    <use xlink:href="#DejaVuSans-4c" x="1878.173828"/>
    <use xlink:href="#DejaVuSans-45" x="1933.886719"/>
    <use xlink:href="#DejaVuSans-56" x="1997.070312"/>
    <use xlink:href="#DejaVuSans-52" x="2065.478516"/>
   </g>
  </g>
  <g id="legend_1">
   <g id="patch_32">
    <path d="M 92.955229 386.877885 
L 563.444291 386.877885 
Q 565.444291 386.877885 565.444291 384.877885 
L 565.444291 371.19976 
Q 565.444291 369.19976 563.444291 369.19976 
L 92.955229 369.19976 
Q 90.955229 369.19976 90.955229 371.19976 
L 90.955229 384.877885 
Q 90.955229 386.877885 92.955229 386.877885 
z
" style="fill: #ffffff; opacity: 0.8; stroke: #cccccc; stroke-linejoin: miter"/>
   </g>
   <g id="line2d_82">
    <path d="M 94.955229 377.298197 
L 104.955229 377.298197 
L 114.955229 377.298197 
" style="fill: none; stroke-dasharray: 1.5,2.475; stroke-dashoffset: 0; stroke: #000000; stroke-width: 1.5"/>
   </g>
   <g id="text_32">
    <!-- Perfectly calibrated -->
    <g transform="translate(122.955229 380.798197) scale(0.1 -0.1)">
     <defs>
      <path id="DejaVuSans-50" d="M 1259 4147 
L 1259 2394 
L 2053 2394 
Q 2494 2394 2734 2622 
Q 2975 2850 2975 3272 
Q 2975 3691 2734 3919 
Q 2494 4147 2053 4147 
L 1259 4147 
z
M 628 4666 
L 2053 4666 
Q 2838 4666 3239 4311 
Q 3641 3956 3641 3272 
Q 3641 2581 3239 2228 
Q 2838 1875 2053 1875 
L 1259 1875 
L 1259 0 
L 628 0 
L 628 4666 
z
" transform="scale(0.015625)"/>
     </defs>
     <use xlink:href="#DejaVuSans-50"/>
     <use xlink:href="#DejaVuSans-65" x="56.677734"/>
     <use xlink:href="#DejaVuSans-72" x="118.201172"/>
     <use xlink:href="#DejaVuSans-66" x="159.314453"/>
     <use xlink:href="#DejaVuSans-65" x="194.519531"/>
     <use xlink:href="#DejaVuSans-63" x="256.042969"/>
     <use xlink:href="#DejaVuSans-74" x="311.023438"/>
     <use xlink:href="#DejaVuSans-6c" x="350.232422"/>
     <use xlink:href="#DejaVuSans-79" x="378.015625"/>
     <use xlink:href="#DejaVuSans-20" x="437.195312"/>
     <use xlink:href="#DejaVuSans-63" x="468.982422"/>
     <use xlink:href="#DejaVuSans-61" x="523.962891"/>
     <use xlink:href="#DejaVuSans-6c" x="585.242188"/>
     <use xlink:href="#DejaVuSans-69" x="613.025391"/>
     <use xlink:href="#DejaVuSans-62" x="640.808594"/>
     <use xlink:href="#DejaVuSans-72" x="704.285156"/>
     <use xlink:href="#DejaVuSans-61" x="745.398438"/>
     <use xlink:href="#DejaVuSans-74" x="806.677734"/>
     <use xlink:href="#DejaVuSans-65" x="845.886719"/>
     <use xlink:href="#DejaVuSans-64" x="907.410156"/>
    </g>
   </g>
   <g id="line2d_83">
    <path d="M 240.045854 377.298197 
L 250.045854 377.298197 
L 260.045854 377.298197 
" style="fill: none; stroke: #1f77b4; stroke-width: 1.5; stroke-linecap: square"/>
    <g>
     <use xlink:href="#me92b8a6757" x="250.045854" y="377.298197" style="fill: #1f77b4; stroke: #1f77b4; stroke-linejoin: miter"/>
    </g>
   </g>
   <g id="text_33">
    <!-- Base -->
    <g transform="translate(268.045854 380.798197) scale(0.1 -0.1)">
     <defs>
      <path id="DejaVuSans-42" d="M 1259 2228 
L 1259 519 
L 2272 519 
Q 2781 519 3026 730 
Q 3272 941 3272 1375 
Q 3272 1813 3026 2020 
Q 2781 2228 2272 2228 
L 1259 2228 
z
M 1259 4147 
L 1259 2741 
L 2194 2741 
Q 2656 2741 2882 2914 
Q 3109 3088 3109 3444 
Q 3109 3797 2882 3972 
Q 2656 4147 2194 4147 
L 1259 4147 
z
M 628 4666 
L 2241 4666 
Q 2963 4666 3353 4366 
Q 3744 4066 3744 3513 
Q 3744 3084 3544 2831 
Q 3344 2578 2956 2516 
Q 3422 2416 3680 2098 
Q 3938 1781 3938 1306 
Q 3938 681 3513 340 
Q 3088 0 2303 0 
L 628 0 
L 628 4666 
z
" transform="scale(0.015625)"/>
     </defs>
     <use xlink:href="#DejaVuSans-42"/>
     <use xlink:href="#DejaVuSans-61" x="68.603516"/>
     <use xlink:href="#DejaVuSans-73" x="129.882812"/>
     <use xlink:href="#DejaVuSans-65" x="181.982422"/>
    </g>
   </g>
   <g id="line2d_84">
    <path d="M 312.397416 377.298197 
L 322.397416 377.298197 
L 332.397416 377.298197 
" style="fill: none; stroke: #ff7f0e; stroke-width: 1.5; stroke-linecap: square"/>
    <g>
     <use xlink:href="#m836e7d9bd1" x="322.397416" y="377.298197" style="fill: #ff7f0e; stroke: #ff7f0e; stroke-linejoin: miter"/>
    </g>
   </g>
   <g id="text_34">
    <!-- Platt -->
    <g transform="translate(340.397416 380.798197) scale(0.1 -0.1)">
     <use xlink:href="#DejaVuSans-50"/>
     <use xlink:href="#DejaVuSans-6c" x="60.302734"/>
     <use xlink:href="#DejaVuSans-61" x="88.085938"/>
     <use xlink:href="#DejaVuSans-74" x="149.365234"/>
     <use xlink:href="#DejaVuSans-74" x="188.574219"/>
    </g>
   </g>
   <g id="line2d_85">
    <path d="M 383.173979 377.298197 
L 393.173979 377.298197 
L 403.173979 377.298197 
" style="fill: none; stroke: #2ca02c; stroke-width: 1.5; stroke-linecap: square"/>
    <g>
     <use xlink:href="#ma9a74a4227" x="393.173979" y="377.298197" style="fill: #2ca02c; stroke: #2ca02c; stroke-linejoin: miter"/>
    </g>
   </g>
   <g id="text_35">
    <!-- Isotonic -->
    <g transform="translate(411.173979 380.798197) scale(0.1 -0.1)">
     <defs>
      <path id="DejaVuSans-49" d="M 628 4666 
L 1259 4666 
L 1259 0 
L 628 0 
L 628 4666 
z
" transform="scale(0.015625)"/>
     </defs>
     <use xlink:href="#DejaVuSans-49"/>
     <use xlink:href="#DejaVuSans-73" x="29.492188"/>
     <use xlink:href="#DejaVuSans-6f" x="81.591797"/>
     <use xlink:href="#DejaVuSans-74" x="142.773438"/>
     <use xlink:href="#DejaVuSans-6f" x="181.982422"/>
     <use xlink:href="#DejaVuSans-6e" x="243.164062"/>
     <use xlink:href="#DejaVuSans-69" x="306.542969"/>
     <use xlink:href="#DejaVuSans-63" x="334.326172"/>
    </g>
   </g>
   <g id="line2d_86">
    <path d="M 470.105229 377.298197 
L 480.105229 377.298197 
L 490.105229 377.298197 
" style="fill: none; stroke: #d62728; stroke-width: 1.5; stroke-linecap: square"/>
    <g>
     <use xlink:href="#m994e47efb4" x="480.105229" y="377.298197" style="fill: #d62728; stroke: #d62728; stroke-linejoin: miter"/>
    </g>
   </g>
   <g id="text_36">
    <!-- Temperature -->
    <g transform="translate(498.105229 380.798197) scale(0.1 -0.1)">
     <defs>
      <path id="DejaVuSans-54" d="M -19 4666 
L 3928 4666 
L 3928 4134 
L 2272 4134 
L 2272 0 
L 1638 0 
L 1638 4134 
L -19 4134 
L -19 4666 
z
" transform="scale(0.015625)"/>
     </defs>
     <use xlink:href="#DejaVuSans-54"/>
     <use xlink:href="#DejaVuSans-65" x="44.083984"/>
     <use xlink:href="#DejaVuSans-6d" x="105.607422"/>
     <use xlink:href="#DejaVuSans-70" x="203.019531"/>
     <use xlink:href="#DejaVuSans-65" x="266.496094"/>
     <use xlink:href="#DejaVuSans-72" x="328.019531"/>
     <use xlink:href="#DejaVuSans-61" x="369.132812"/>
     <use xlink:href="#DejaVuSans-74" x="430.412109"/>
     <use xlink:href="#DejaVuSans-75" x="469.621094"/>
     <use xlink:href="#DejaVuSans-72" x="533"/>
     <use xlink:href="#DejaVuSans-65" x="571.863281"/>
    </g>
   </g>
  </g>
 </g>
 <defs>
  <clipPath id="pa70da948b9">
   <rect x="43.78125" y="39.932355" width="195.472437" height="187.606957"/>
  </clipPath>
  <clipPath id="p64ddaeb824">
   <rect x="248.754167" y="39.932355" width="195.472437" height="187.606957"/>
  </clipPath>
  <clipPath id="pcb109cc4fc">
   <rect x="453.727083" y="39.932355" width="195.472437" height="187.606957"/>
  </clipPath>
  <clipPath id="p0ec741dca4">
   <rect x="43.78125" y="237.039792" width="195.472437" height="93.803478"/>
  </clipPath>
  <clipPath id="p4abf4af710">
   <rect x="248.754167" y="237.039792" width="195.472437" height="93.803478"/>
  </clipPath>
  <clipPath id="p49a7fe9e32">
   <rect x="453.727083" y="237.039792" width="195.472437" height="93.803478"/>
  </clipPath>
 </defs>
</svg>
